<svg xmlns="http://www.w3.org/2000/svg" xmlns:xlink="http://www.w3.org/1999/xlink" viewBox="0 0 138.51 102.81">
  <defs/>
  <defs>
    <radialGradient id="futuregrit_163" cx="71.51" cy="-110.77" r="53.52" gradientTransform="matrix(1 0 0 1.68 0 281.96)" gradientUnits="userSpaceOnUse">
      <stop offset="0" stop-color="#ffbd00"/>
      <stop offset="1" stop-color="#ff772c"/>
    </radialGradient>
    <linearGradient id="futuregrit_160" x1="69.27" x2="69.27" y1="97.4" y2=".95" gradientUnits="userSpaceOnUse">
      <stop offset="0" stop-color="#fff300"/>
      <stop offset="1" stop-color="#ff9700"/>
    </linearGradient>
    <linearGradient id="futuregrit_169" x1="69.27" x2="69.27" y1="95.59" y2="2" gradientUnits="userSpaceOnUse">
      <stop offset="0" stop-color="#fc0"/>
      <stop offset="1" stop-color="#ff9700"/>
    </linearGradient>
    <linearGradient id="linear-gradient" x1="43.08" x2="95.64" y1="54.38" y2="54.38" gradientUnits="userSpaceOnUse">
      <stop offset=".1" stop-color="#d61a00"/>
      <stop offset=".4" stop-color="#dc1b00"/>
      <stop offset=".78" stop-color="#ec1e00"/>
      <stop offset="1" stop-color="#f82100"/>
    </linearGradient>
    <linearGradient id="futuregrit_172" x1="9.9" x2="134.84" y1="20.8" y2="20.8" gradientUnits="userSpaceOnUse">
      <stop offset="0" stop-color="#ff9840"/>
      <stop offset=".1" stop-color="#ef8e3c"/>
      <stop offset=".29" stop-color="#c57531"/>
      <stop offset=".55" stop-color="#814d20"/>
      <stop offset=".88" stop-color="#241609"/>
      <stop offset="1"/>
    </linearGradient>
    <linearGradient id="futuregrit_155" x1="202.14" x2="321.24" y1="84.02" y2="84.02" gradientTransform="matrix(-1 0 0 1 331.34 0)" gradientUnits="userSpaceOnUse">
      <stop offset="0" stop-color="#ff6140"/>
      <stop offset=".1" stop-color="#ef5b3c"/>
      <stop offset=".29" stop-color="#c54b31"/>
      <stop offset=".55" stop-color="#813120"/>
      <stop offset=".88" stop-color="#240e09"/>
      <stop offset="1"/>
    </linearGradient>
  </defs>
  <g style="isolation:isolate">
    <g id="Layer_2">
      <g id="Play">
        <path fill="url(#futuregrit_163)" d="M2.33 87.7c4.8 16.83 121 21.55 130.9 4.06 9-15.89 5.34-72.78-2.35-84.13C120.4-7.82 17.14 3 8.66 15.2.75 26.54-2.64 70.27 2.33 87.7z"/>
        <path fill="url(#futuregrit_160)" d="M2.72 84.73C7.49 101 123 102.11 132.87 85.25c9-15.32 5.44-66-2.22-76.94C120.21-6.59 17.33 3.87 8.88 15.6 1 26.54-2.24 67.92 2.72 84.73z"/>
        <path fill="url(#futuregrit_169)" d="M4.15 83.3c4.68 15.7 117.71 16.86 127.35.5 8.76-14.87 5.32-64-2.18-74.66C119.11-5.33 18.46 4.83 10.19 16.21 2.48 26.83-.69 67 4.15 83.3z"/>
        <path fill="url(#linear-gradient)" d="M44.57 73.36L50 78.9a5.18 5.18 0 007.33 0l11.94-11.7L81 79.12a5.18 5.18 0 007.33 0l5.53-5.45a5.18 5.18 0 00.06-7.33L82.18 54.47 94.1 42.73a5.18 5.18 0 00.05-7.33l-5.45-5.53a5.18 5.18 0 00-7.33-.06L69.45 41.56 57.71 29.65a5.18 5.18 0 00-7.33-.06l-5.53 5.46a5.17 5.17 0 00-.05 7.32l11.74 11.92L44.63 66a5.17 5.17 0 00-.06 7.36z"/>
        <path d="M9.9 16.29s78.81-26.9 119.7-6.9a72.93 72.93 0 015.24 19.54A89.29 89.29 0 0198.91 39.5c-21 1.61-43-18.39-60.78-21.37S9.9 16.29 9.9 16.29z" style="mix-blend-mode:screen" fill="url(#futuregrit_172)"/>
        <path d="M129.2 84.1S76.48 99.73 10.1 85.94c0 0 43.12 6.29 62.31 0C105 75.26 120.64 72.09 129.2 84.1z" style="mix-blend-mode:screen" fill="url(#futuregrit_155)"/>
        <path d="M6.94 23.09s1.65-5.71 5.49-8.77S27.19 8.19 27.81 9s-5.32 4.4-8.4 6.29-10.9 9.26-12.47 7.8zM6.6 24.62c-.79.2-2.76 10.51-2.64 12.2s2.49-3.66 2.86-6.51a19.54 19.54 0 00-.22-5.69z" style="fill:#fff"/>
        <path d="M127.78 88.52c-.55-1.65 4.33-9.19 5.56-9.16s.14 5-.61 6.11-4.68 3.88-4.95 3.05z" style="fill:#fff"/>
      </g>
    </g>
  </g>
</svg>
