<svg xmlns="http://www.w3.org/2000/svg" xmlns:xlink="http://www.w3.org/1999/xlink" viewBox="0 0 138.51 102.81">
  <defs/>
  <defs>
    <radialGradient id="futuregrit_163" cx="71.51" cy="-110.77" r="53.52" gradientTransform="matrix(1 0 0 1.68 0 281.96)" gradientUnits="userSpaceOnUse">
      <stop offset="0" stop-color="#ffbd00"/>
      <stop offset="1" stop-color="#ff772c"/>
    </radialGradient>
    <radialGradient id="futuregrit_168" cx="567.42" cy="-761.83" r="1.65" gradientTransform="matrix(-.06 -1.68 1 -.1 815.5 911.2)">
      <stop offset="0" stop-color="#00b359"/>
      <stop offset=".13" stop-color="#009148"/>
      <stop offset=".34" stop-color="#005e2f"/>
      <stop offset=".54" stop-color="#00351a"/>
      <stop offset=".73" stop-color="#00180c"/>
      <stop offset=".89" stop-color="#000603"/>
      <stop offset="1"/>
    </radialGradient>
    <radialGradient id="futuregrit_168-2" cx="574.36" cy="-759.17" r="1.65" xlink:href="#futuregrit_168"/>
    <radialGradient id="futuregrit_168-3" cx="554.14" cy="-761.7" r="1.65" xlink:href="#futuregrit_168"/>
    <radialGradient id="futuregrit_168-4" cx="575.55" cy="-768.02" r="4.62" xlink:href="#futuregrit_168"/>
    <radialGradient id="futuregrit_168-5" cx="536.51" cy="-675.4" r="4.62" xlink:href="#futuregrit_168"/>
    <radialGradient id="futuregrit_168-6" cx="539.71" cy="-651.48" r="2.21" xlink:href="#futuregrit_168"/>
    <radialGradient id="futuregrit_168-7" cx="541.98" cy="-756.97" r="2.21" xlink:href="#futuregrit_168"/>
    <radialGradient id="futuregrit_168-8" cx="547.54" cy="-693.27" r="1.1" xlink:href="#futuregrit_168"/>
    <radialGradient id="futuregrit_168-9" cx="538.44" cy="-776.87" r="1.1" xlink:href="#futuregrit_168"/>
    <radialGradient id="futuregrit_168-10" cx="555.49" cy="-744.81" r="1.1" xlink:href="#futuregrit_168"/>
    <radialGradient id="futuregrit_168-11" cx="539.41" cy="-761.11" r=".82" xlink:href="#futuregrit_168"/>
    <radialGradient id="futuregrit_168-12" cx="532.9" cy="-704.2" r="1.72" xlink:href="#futuregrit_168"/>
    <radialGradient id="futuregrit_168-13" cx="533.82" cy="-740.52" r="1.72" xlink:href="#futuregrit_168"/>
    <linearGradient id="futuregrit_160" x1="69.27" x2="69.27" y1="97.4" y2=".95" gradientUnits="userSpaceOnUse">
      <stop offset="0" stop-color="#fff300"/>
      <stop offset="1" stop-color="#ff9700"/>
    </linearGradient>
    <linearGradient id="futuregrit_169" x1="69.27" x2="69.27" y1="95.59" y2="2" gradientUnits="userSpaceOnUse">
      <stop offset="0" stop-color="#fc0"/>
      <stop offset="1" stop-color="#ff9700"/>
    </linearGradient>
    <linearGradient id="linear-gradient" x1="43.08" x2="95.64" y1="54.38" y2="54.38" gradientUnits="userSpaceOnUse">
      <stop offset=".1" stop-color="#d61a00"/>
      <stop offset=".4" stop-color="#dc1b00"/>
      <stop offset=".78" stop-color="#ec1e00"/>
      <stop offset="1" stop-color="#f82100"/>
    </linearGradient>
    <linearGradient id="futuregrit_172" x1="9.9" x2="134.84" y1="20.8" y2="20.8" gradientUnits="userSpaceOnUse">
      <stop offset="0" stop-color="#ff9840"/>
      <stop offset=".1" stop-color="#ef8e3c"/>
      <stop offset=".29" stop-color="#c57531"/>
      <stop offset=".55" stop-color="#814d20"/>
      <stop offset=".88" stop-color="#241609"/>
      <stop offset="1"/>
    </linearGradient>
    <linearGradient id="futuregrit_155" x1="202.14" x2="321.24" y1="84.02" y2="84.02" gradientTransform="matrix(-1 0 0 1 331.34 0)" gradientUnits="userSpaceOnUse">
      <stop offset="0" stop-color="#ff6140"/>
      <stop offset=".1" stop-color="#ef5b3c"/>
      <stop offset=".29" stop-color="#c54b31"/>
      <stop offset=".55" stop-color="#813120"/>
      <stop offset=".88" stop-color="#240e09"/>
      <stop offset="1"/>
    </linearGradient>
    <style>
      .cls-8{fill:#fff}.cls-10{fill:#ffffab}
    </style>
  </defs>
  <g style="isolation:isolate">
    <g id="Layer_2">
      <g id="Play">
        <path fill="url(#futuregrit_163)" d="M2.33 87.7c4.8 16.83 121 21.55 130.9 4.06 9-15.89 5.34-72.78-2.35-84.13C120.4-7.82 17.14 3 8.66 15.2.75 26.54-2.64 70.27 2.33 87.7z"/>
        <path fill="url(#futuregrit_160)" d="M2.72 84.73C7.49 101 123 102.11 132.87 85.25c9-15.32 5.44-66-2.22-76.94C120.21-6.59 17.33 3.87 8.88 15.6 1 26.54-2.24 67.92 2.72 84.73z"/>
        <path fill="url(#futuregrit_169)" d="M4.15 83.3c4.68 15.7 117.71 16.86 127.35.5 8.76-14.87 5.32-64-2.18-74.66C119.11-5.33 18.46 4.83 10.19 16.21 2.48 26.83-.69 67 4.15 83.3z"/>
        <path fill="url(#linear-gradient)" d="M44.57 73.36L50 78.9a5.18 5.18 0 007.33 0l11.94-11.7L81 79.12a5.18 5.18 0 007.33 0l5.53-5.45a5.18 5.18 0 00.06-7.33L82.18 54.47 94.1 42.73a5.18 5.18 0 00.05-7.33l-5.45-5.53a5.18 5.18 0 00-7.33-.06L69.45 41.56 57.71 29.65a5.18 5.18 0 00-7.33-.06l-5.53 5.46a5.17 5.17 0 00-.05 7.32l11.74 11.92L44.63 66a5.17 5.17 0 00-.06 7.36z"/>
        <path d="M9.9 16.29s78.81-26.9 119.7-6.9a72.93 72.93 0 015.24 19.54A89.29 89.29 0 0198.91 39.5c-21 1.61-43-18.39-60.78-21.37S9.9 16.29 9.9 16.29z" style="mix-blend-mode:screen" fill="url(#futuregrit_172)"/>
        <path d="M129.2 84.1S76.48 99.73 10.1 85.94c0 0 43.12 6.29 62.31 0C105 75.26 120.64 72.09 129.2 84.1z" style="mix-blend-mode:screen" fill="url(#futuregrit_155)"/>
        <path d="M6.94 23.09s1.65-5.71 5.49-8.77S27.19 8.19 27.81 9s-5.32 4.4-8.4 6.29-10.9 9.26-12.47 7.8zM6.6 24.62c-.79.2-2.76 10.51-2.64 12.2s2.49-3.66 2.86-6.51a19.54 19.54 0 00-.22-5.69z" style="fill:#fff"/>
        <path d="M21.13 31.64c.91-.09 1.69 1.08 1.74 2.61s-.64 2.85-1.55 2.94-1.69-1.08-1.74-2.61.64-2.85 1.55-2.94z" style="mix-blend-mode:screen" fill="url(#futuregrit_168)"/>
        <path d="M21.32 33.63c.26 0 .47.3.49.73s-.18.78-.43.81-.47-.3-.48-.72.17-.79.42-.82z" style="fill:#ffffab"/>
        <path d="M23.37 19.72c.91-.09 1.69 1.07 1.74 2.61s-.64 2.84-1.55 2.93-1.69-1.07-1.74-2.6.64-2.85 1.55-2.94z" style="mix-blend-mode:screen" fill="url(#futuregrit_168-2)"/>
        <path d="M23.57 21.71c.25 0 .46.3.48.72s-.18.79-.43.82-.47-.3-.48-.73.17-.78.43-.81z" style="fill:#ffffab"/>
        <path d="M22 53.93c.91-.09 1.7 1.07 1.75 2.61s-.64 2.84-1.55 2.93-1.69-1.07-1.74-2.6.68-2.87 1.54-2.94z" style="mix-blend-mode:screen" fill="url(#futuregrit_168-3)"/>
        <path d="M22.24 55.92c.26 0 .47.3.49.72s-.18.79-.43.82-.47-.3-.48-.73.18-.73.42-.81z" style="fill:#ffffab"/>
        <path d="M14.28 13.62c2.54-.26 4.73 3 4.88 7.29s-1.79 8-4.33 8.22-4.74-3-4.89-7.29 1.79-7.97 4.34-8.22z" style="mix-blend-mode:screen" fill="url(#futuregrit_168-4)"/>
        <path d="M14.83 19.19c.71-.07 1.31.83 1.36 2s-.5 2.21-1.2 2.28-1.31-.84-1.36-2 .5-2.21 1.2-2.28z" style="fill:#ffffab"/>
        <path d="M109.06 69.91c2.55-.26 4.74 3 4.89 7.29s-1.79 8-4.34 8.22-4.73-3-4.88-7.29 1.79-7.97 4.33-8.22z" style="mix-blend-mode:screen" fill="url(#futuregrit_168-5)"/>
        <path d="M109.62 75.48c.7-.07 1.31.83 1.35 2s-.49 2.21-1.2 2.28-1.31-.84-1.35-2 .49-2.21 1.2-2.28z" style="fill:#ffffab"/>
        <path d="M132.89 66.19c1.22-.13 2.26 1.43 2.34 3.48s-.86 3.8-2.07 3.93-2.26-1.44-2.34-3.49.86-3.8 2.07-3.92z" style="mix-blend-mode:screen" fill="url(#futuregrit_168-6)"/>
        <path d="M133.16 68.85c.34 0 .63.4.65 1s-.24 1.06-.58 1.09-.62-.4-.64-1 .23-1.06.57-1.09z" style="fill:#ffffab"/>
        <path d="M27.45 73c1.22-.12 2.26 1.44 2.34 3.48s-.86 3.81-2.08 3.93-2.26-1.44-2.33-3.49.86-3.85 2.07-3.92z" style="mix-blend-mode:screen" fill="url(#futuregrit_168-7)"/>
        <path d="M27.72 75.61c.33 0 .62.4.64 1s-.23 1.06-.57 1.09-.63-.4-.65-1 .24-1.06.58-1.09z" style="fill:#ffffab"/>
        <path d="M90.78 59.08c.6-.06 1.13.72 1.16 1.74s-.42 1.91-1 2-1.13-.72-1.17-1.74.4-1.94 1.01-2z" style="mix-blend-mode:screen" fill="url(#futuregrit_168-8)"/>
        <path d="M90.91 60.41c.17 0 .31.2.32.49s-.12.52-.28.54-.32-.2-.33-.48.12-.53.29-.55z" style="fill:#ffffab"/>
        <path d="M7.87 82.75c.6-.06 1.13.72 1.16 1.74s-.42 1.9-1 2-1.13-.71-1.17-1.74.4-1.94 1.01-2z" style="mix-blend-mode:screen" fill="url(#futuregrit_168-9)"/>
        <path d="M8 84.08c.17 0 .31.2.32.48s-.12.53-.28.55-.32-.2-.33-.49.12-.52.29-.54z" style="fill:#ffffab"/>
        <path d="M38.86 50.89c.6-.06 1.13.72 1.16 1.74s-.42 1.9-1 2-1.13-.72-1.17-1.74.4-1.89 1.01-2z" style="mix-blend-mode:screen" fill="url(#futuregrit_168-10)"/>
        <path d="M39 52.22c.17 0 .31.2.32.48s-.12.53-.28.54-.32-.2-.33-.48.11-.53.29-.54z" style="fill:#ffffab"/>
        <path d="M23.56 80c.45 0 .84.53.87 1.29s-.32 1.42-.77 1.47-.85-.54-.87-1.3.31-1.4.77-1.46z" style="mix-blend-mode:screen" fill="url(#futuregrit_168-11)"/>
        <path d="M23.66 81c.12 0 .23.15.24.36s-.09.39-.22.4-.23-.15-.24-.36.09-.4.22-.4z" style="fill:#ffffab"/>
        <path d="M80.7 83.73c1-.1 1.76 1.12 1.82 2.72s-.67 3-1.62 3.07-1.76-1.13-1.82-2.73.67-2.97 1.62-3.06z" style="mix-blend-mode:screen" fill="url(#futuregrit_168-12)"/>
        <path d="M80.91 85.81c.26 0 .48.31.5.75s-.19.82-.45.85-.49-.31-.5-.75.18-.83.45-.85z" style="fill:#ffffab"/>
        <path d="M44.39 85.81c1-.09 1.76 1.13 1.82 2.73s-.67 3-1.62 3.06-1.76-1.12-1.82-2.72.67-2.97 1.62-3.07z" style="mix-blend-mode:screen" fill="url(#futuregrit_168-13)"/>
        <path d="M44.6 87.89c.26 0 .49.31.5.76s-.18.82-.45.85-.49-.31-.5-.76.18-.82.45-.85z" style="fill:#ffffab"/>
        <path d="M127.78 88.52c-.55-1.65 4.33-9.19 5.56-9.16s.14 5-.61 6.11-4.68 3.88-4.95 3.05z" style="fill:#fff"/>
      </g>
    </g>
  </g>
</svg>
