<svg xmlns="http://www.w3.org/2000/svg" xmlns:xlink="http://www.w3.org/1999/xlink" viewBox="0 0 138.51 102.81">
  <defs/>
  <defs>
    <radialGradient id="futuregrit_163" cx="631.51" cy="-110.77" r="53.52" gradientTransform="matrix(-1 0 0 1.68 698.51 281.96)" gradientUnits="userSpaceOnUse">
      <stop offset="0" stop-color="#ffbd00"/>
      <stop offset="1" stop-color="#ff772c"/>
    </radialGradient>
    <linearGradient id="futuregrit_160" x1="629.27" x2="629.27" y1="97.4" y2=".95" gradientTransform="matrix(-1 0 0 1 698.51 0)" gradientUnits="userSpaceOnUse">
      <stop offset="0" stop-color="#fff300"/>
      <stop offset="1" stop-color="#ff9700"/>
    </linearGradient>
    <linearGradient id="futuregrit_169" x1="629.27" x2="629.27" y1="95.59" y2="2" gradientTransform="matrix(-1 0 0 1 698.51 0)" gradientUnits="userSpaceOnUse">
      <stop offset="0" stop-color="#fc0"/>
      <stop offset="1" stop-color="#ff9700"/>
    </linearGradient>
    <linearGradient id="linear-gradient" x1="39.46" x2="99.85" y1="49.58" y2="49.58" gradientTransform="translate(-.8)" gradientUnits="userSpaceOnUse">
      <stop offset=".14" stop-color="#008c09"/>
      <stop offset=".71" stop-color="#00860d"/>
      <stop offset="1" stop-color="#008110"/>
    </linearGradient>
    <linearGradient id="futuregrit_172" x1="569.9" x2="694.84" y1="20.8" y2="20.8" gradientTransform="matrix(-1 0 0 1 698.51 0)" gradientUnits="userSpaceOnUse">
      <stop offset="0" stop-color="#ff9840"/>
      <stop offset=".1" stop-color="#ef8e3c"/>
      <stop offset=".29" stop-color="#c57531"/>
      <stop offset=".55" stop-color="#814d20"/>
      <stop offset=".88" stop-color="#241609"/>
      <stop offset="1"/>
    </linearGradient>
    <linearGradient id="futuregrit_155" x1="-691.01" x2="-571.9" y1="84.02" y2="84.02" gradientTransform="translate(700.31)" gradientUnits="userSpaceOnUse">
      <stop offset="0" stop-color="#ff6140"/>
      <stop offset=".1" stop-color="#ef5b3c"/>
      <stop offset=".29" stop-color="#c54b31"/>
      <stop offset=".55" stop-color="#813120"/>
      <stop offset=".88" stop-color="#240e09"/>
      <stop offset="1"/>
    </linearGradient>
  </defs>
  <g style="isolation:isolate">
    <g id="Layer_2">
      <g id="Play">
        <path fill="url(#futuregrit_163)" d="M136.18 87.7c-4.8 16.83-121 21.55-130.91 4.06C-3.72 75.87-.06 19 7.63 7.63 18.11-7.82 121.37 3 129.85 15.2c7.91 11.34 11.3 55.07 6.33 72.5z"/>
        <path fill="url(#futuregrit_160)" d="M135.79 84.73C131 101 15.49 102.11 5.63 85.25-3.32 69.93.2 19.25 7.86 8.31 18.3-6.59 121.18 3.87 129.62 15.6c7.88 10.94 11.13 52.32 6.17 69.13z"/>
        <path fill="url(#futuregrit_169)" d="M134.36 83.3C129.68 99 16.65 100.16 7 83.8c-8.76-14.87-5.32-64 2.18-74.66C19.4-5.33 120.05 4.83 128.32 16.21 136 26.83 139.2 67 134.36 83.3z"/>
        <path fill="url(#linear-gradient)" d="M96.78 26.57l-1.62-1.38a6.51 6.51 0 00-9.08.57L59 55.76l-8.16-7a6.52 6.52 0 00-9.09.56l-1.43 1.59a6.53 6.53 0 00.47 9.21l15 13.7a6.51 6.51 0 009.4-.5l32.28-37.55a6.53 6.53 0 00-.69-9.2z"/>
        <path d="M128.61 16.29S49.8-10.61 8.91 9.39a72.93 72.93 0 00-5.24 19.54A89.29 89.29 0 0039.6 39.5c21 1.61 43-18.39 60.78-21.37s28.23-1.84 28.23-1.84z" style="mix-blend-mode:screen" fill="url(#futuregrit_172)"/>
        <path d="M9.31 84.1S62 99.73 128.41 85.94c0 0-43.12 6.29-62.31 0C33.52 75.26 17.87 72.09 9.31 84.1z" style="mix-blend-mode:screen" fill="url(#futuregrit_155)"/>
        <path d="M131.57 23.09s-1.65-5.71-5.49-8.77S111.32 8.19 110.7 9s5.32 4.4 8.4 6.29 10.9 9.26 12.47 7.8zM131.91 24.62c.79.2 2.76 10.51 2.64 12.2s-2.49-3.66-2.86-6.51a19.54 19.54 0 01.22-5.69z" style="fill:#fff"/>
        <path d="M10.73 88.52c.55-1.65-4.33-9.19-5.57-9.16s-.13 5 .62 6.11 4.67 3.88 4.95 3.05z" style="fill:#fff"/>
      </g>
    </g>
  </g>
</svg>
