<svg xmlns="http://www.w3.org/2000/svg" viewBox="0 0 260.33 43.23">
  <defs/>
  <defs>
    <clipPath id="clip-path">
      <path style="fill:none;" d="M330.35-176.77h360v640h-360z"/>
    </clipPath>
    <clipPath id="clip-path-2">
      <path style="fill:none;" d="M-99.67 307.45h360v155.78h-360z"/>
    </clipPath>
    <clipPath id="clip-path-3">
      <path style="fill:none;" d="M16.74 42.3h-15a1.63 1.63 0 01-1.31-.48 2.46 2.46 0 01-.4-1.57v-6.63a2.41 2.41 0 01.41-1.56 1.63 1.63 0 011.31-.49h12.73a1 1 0 00.93-.49 2.17 2.17 0 00.32-1.17 2.55 2.55 0 00-.29-1.42 1.2 1.2 0 00-.92-.51l-7.04-1.2a9.32 9.32 0 01-5.28-2.59C.88 22.83.25 20.56.33 17.39c.06-2 .11-4 .18-6A10.38 10.38 0 013.36 4a10.17 10.17 0 017.25-2.65l13.15-.13A1.55 1.55 0 0125 1.7a2.44 2.44 0 01.35 1.56c-.07 2.27-.14 4.53-.19 6.8a2.58 2.58 0 01-.44 1.57 1.65 1.65 0 01-1.31.49l-11 .07a1.15 1.15 0 00-1 .49 2.18 2.18 0 00-.36 1.23 2.25 2.25 0 00.3 1.25 1.13 1.13 0 00.93.56l7 1.1a9.33 9.33 0 015.29 2.6c1.33 1.36 2 3.65 1.94 6.84q0 3-.05 6c0 3.23-.9 5.72-2.65 7.45a9.75 9.75 0 01-7.07 2.59zm30.59 0h-7.67a1.64 1.64 0 01-1.3-.49 2.47 2.47 0 01-.36-1.56q0-14 .26-28.09h-6.93a1.54 1.54 0 01-1.33-.45 2.39 2.39 0 01-.36-1.57q.07-3.45.18-6.91a2.56 2.56 0 01.44-1.57 1.66 1.66 0 011.31-.5Q44 1.07 56.36 1a1.49 1.49 0 011.28.48A2.45 2.45 0 0158 3.06c0 2.32-.08 4.63-.11 7a2.53 2.53 0 01-.42 1.58 1.61 1.61 0 01-1.31.49h-6.93Q49 26.18 49 40.26a2.44 2.44 0 01-.4 1.57 1.59 1.59 0 01-1.27.49zm24 0H64a1.63 1.63 0 01-1.3-.49 2.47 2.47 0 01-.41-1.58q0-18.61.28-37.22A2.55 2.55 0 0163 1.46 1.61 1.61 0 0164.3 1h15.64c3.51 0 5.92.88 7.25 2.67a11.27 11.27 0 012 6.93v2.64a12.44 12.44 0 01-.6 4.12 4.19 4.19 0 01-2.06 2.44 5.94 5.94 0 014.13 2.53 9.75 9.75 0 011.58 5.81v12.2a2.46 2.46 0 01-.4 1.58 1.58 1.58 0 01-1.3.49h-7.4a1.58 1.58 0 01-1.3-.49 2.46 2.46 0 01-.4-1.58v-8.8a3.43 3.43 0 00-.39-1.87 1.57 1.57 0 00-1.4-.6H73v11.27a2.54 2.54 0 01-.4 1.58 1.63 1.63 0 01-1.3.41zm1.82-31c0 2.45 0 4.9-.05 7.35h3.54a1.73 1.73 0 001.66-.78 4 4 0 00.44-1.93v-1.95a3.91 3.91 0 00-.42-1.93 1.7 1.7 0 00-1.64-.77zm53 20.17a16.65 16.65 0 01-.64 4.8 8 8 0 01-2.27 3.68 11.27 11.27 0 01-4.5 2.39 25.88 25.88 0 01-7.27.86 25.72 25.72 0 01-7.29-.86 11.15 11.15 0 01-4.53-2.39 8 8 0 01-2.27-3.68 16.74 16.74 0 01-.64-4.8V11.85A16.77 16.77 0 0197.39 7a8.21 8.21 0 012.26-3.71A10.9 10.9 0 01104.13.9a25.4 25.4 0 017.23-.85 25.56 25.56 0 017.22.87 11.11 11.11 0 014.48 2.43 8.43 8.43 0 012.3 3.71 17.06 17.06 0 01.68 4.8q.08 9.81.11 19.6zm-18.66-2.07a2.76 2.76 0 00.71 1.92q.7.78 3.27.78c1.7 0 2.79-.26 3.26-.78a2.68 2.68 0 00.71-1.92V13.93a2.66 2.66 0 00-.72-1.87c-.47-.52-1.56-.78-3.25-.78s-2.79.25-3.26.77a2.68 2.68 0 00-.7 1.87zm53.56 2.11a16.62 16.62 0 01-.62 4.78 8 8 0 01-2.28 3.66 11.39 11.39 0 01-4.5 2.38 31.24 31.24 0 01-14.56 0 11.14 11.14 0 01-4.53-2.38 8.08 8.08 0 01-2.27-3.67 16.74 16.74 0 01-.65-4.8q0-9.79-.13-19.59a17.17 17.17 0 01.58-4.8 8.14 8.14 0 012.21-3.69 10.76 10.76 0 014.45-2.4 30.74 30.74 0 0114.44.08 11.59 11.59 0 014.53 2.43 8.51 8.51 0 012.34 3.71 16.52 16.52 0 01.74 4.78q.2 9.74.25 19.5zm-18.67-2.09a2.69 2.69 0 00.72 1.92q.71.78 3.27.78c1.7 0 2.79-.25 3.26-.77a2.64 2.64 0 00.7-1.92q0-7.71-.16-15.42a2.7 2.7 0 00-.73-1.86c-.48-.52-1.57-.78-3.27-.79s-2.78.25-3.24.76a2.63 2.63 0 00-.69 1.87q.11 7.7.14 15.42zm33.75 12.88h-7.34a1.6 1.6 0 01-1.31-.49 2.49 2.49 0 01-.4-1.57q0-18.51-.51-37a2.47 2.47 0 01.35-1.57 1.53 1.53 0 011.28-.47l14.38.12c4.25 0 7.21 1.1 8.85 3.16a13.1 13.1 0 012.63 8c.07 2.42.14 4.84.19 7.26a12.43 12.43 0 01-2.23 8c-1.55 2-4.48 3.06-8.77 3.05h-5.45v9.46a2.44 2.44 0 01-.41 1.57 1.61 1.61 0 01-1.26.48zm1.27-30.39q.1 4.31.18 8.61h4.26a1.77 1.77 0 001.78-.84 4.21 4.21 0 00.38-1.94c0-1 0-2-.07-3a4.24 4.24 0 00-.47-1.94 1.88 1.88 0 00-1.82-.87zm45.67 30.35h-22a1.61 1.61 0 01-1.3-.48 2.41 2.41 0 01-.4-1.56q0-18.36-.76-36.73A2.28 2.28 0 01199 2a1.48 1.48 0 011.27-.47q10.89.12 21.79.28a1.7 1.7 0 011.32.49 2.53 2.53 0 01.48 1.56q.18 3.29.32 6.57a2.32 2.32 0 01-.33 1.54 1.54 1.54 0 01-1.28.47l-13-.13c0 1.45.1 2.9.14 4.35l9.21.08a1.67 1.67 0 011.32.49 2.49 2.49 0 01.45 1.55q.09 3 .15 6a2.36 2.36 0 01-.37 1.54 1.58 1.58 0 01-1.29.48h-9.23c0 1.62 0 3.24.06 4.86h13.07a1.63 1.63 0 011.31.48 2.45 2.45 0 01.42 1.55v6.58a2.36 2.36 0 01-.41 1.54 1.61 1.61 0 01-1.33.45zm16.29 0h-7.29a1.62 1.62 0 01-1.3-.47 2.4 2.4 0 01-.4-1.55q0-18.16-1-36.34a2.29 2.29 0 01.31-1.54A1.5 1.5 0 01231 1.9l15.64.25q5.25.09 7.43 2.7a11.08 11.08 0 012.4 6.72c.05.85.09 1.69.14 2.54a11.3 11.3 0 01-.42 4 3.72 3.72 0 01-2 2.34 6.29 6.29 0 014.22 2.47 9.23 9.23 0 011.73 5.61q.14 5.86.12 11.73a2.3 2.3 0 01-.41 1.52 1.62 1.62 0 01-1.3.48h-7.35a1.64 1.64 0 01-1.3-.47 2.36 2.36 0 01-.39-1.53q0-4.26-.06-8.52a3.24 3.24 0 00-.45-1.84 1.61 1.61 0 00-1.4-.59h-6.63q.09 5.46.08 10.94a2.37 2.37 0 01-.4 1.54 1.66 1.66 0 01-1.29.45zm1.08-30.15q.17 3.57.29 7.14h3.54a1.66 1.66 0 001.63-.74 3.67 3.67 0 00.35-1.86c0-.64-.05-1.27-.08-1.9a3.84 3.84 0 00-.51-1.87 1.84 1.84 0 00-1.68-.77z"/>
    </clipPath>
    <clipPath id="clip-path-5">
      <path style="fill:none;" d="M320.61 60.82c.23-.14-10-35.06-53.17-68.6-43.11-32.79-108.08-65.86-210.2-45.78 1.11-.2-127.42 22.82-162.73 3 .9.59 1.3 14.78 12.37 35.89C-82.58 6.29-61.36 34.2-30.95 59s70 46.35 116.78 53.36c47.28 7 101.78-.53 173.06-33.69q30.81-9.13 61.72-17.85z"/>
    </clipPath>
  </defs>
  <g id="Strooper_Assets">
    <g clip-path="url(#clip-path-3)" id="Title">
      <g clip-path="url(#clip-path-5)">
        <path style="fill:#ef7043;" d="M283.42-4.6c-17 34.51-39.66 70.38-63.47 107Q254 97.76 288.38 93a419.11 419.11 0 0013.28-84q-9.06-6.74-18.24-13.6z"/>
        <path d="M289.78-6.18c-16.41 37.25-39.5 76-64.11 115.59q-9.28.25-18.55.49C229.61 63.17 250 17.2 262-27.37q13.91 10.71 27.78 21.19z" fill="#fd8a00"/>
        <path d="M250.11-31.32A711 711 0 01227.47 40c-12.83 35.64-30.11 72-29.59 72q10.29 3 20.43 6C239.86 68 258.25 18.83 267-28.95z" fill="#f73a00"/>
        <path d="M214.66-45C210 5.73 198 57.13 183.38 109q7.8 6 15.34 12c23-53.4 43.61-106 53.71-157.16z" fill="#bd178d"/>
        <path d="M198.37-57.44c.14 0-7.06 28.62-15.81 66-8.36 37.34-18.26 83.47-14.64 116.72 5.4 66.35 16-11.71 15.81-11.64C200.34 57.57 214 2 218.46-52.78z" fill="#ff0046"/>
        <path d="M157.62-61.41q20.74.4 41.49 1.1c-3.29 55.46-14.61 111.55-28.53 168l-29.92 9.2c1.27.11-10.48-153.46 16.96-178.3z" fill="#2626dd"/>
        <path d="M146.49-63.44c2.9-.34-60.24 151.66-46.13 185.72 13.69 34 41.77-5.41 42.18-5.4-.13 0 2.36-42.73 4.79-86.84 2.78-44.11 5.51-89.58 14-95 17.67-10.99-14.72 1.45-14.84 1.52z" fill="#0092e3"/>
        <path d="M119.61-68.56C99.17-8.82 72.11 51.46 51.54 111q23.57 5.77 46.68 11.33C116.13 58.08 137.5-6.25 150.45-69.84q-15.38.56-30.84 1.28z" fill="#4cc064"/>
        <path d="M104.33-67.15c2.14 0-88.54 122-62.87 172.85 24.16 51.4 17.19-2 17.42-2-1.46.24 63.19-177.2 71.77-178 11.24-1.06-26.19 7.07-26.32 7.15z" fill="#c1cd00"/>
        <path d="M79.88-66.72c.76.27-76.21 139.64-61.71 164.05C30.22 122.4 42.34 94 42.51 94c-2.11.22 36.12-148.21 65.9-156 29.79-7.54-28.53-4.87-28.53-4.72z" fill="#f9f910"/>
        <path d="M68.85-67.15c1.06-.08-65.91 91.8-127.52 113.92-61.28 22 38 24.88 37.76 25-2.18 1 101.15-129 102.58-138.54 2.44-9.23-12.77-.39-12.82-.38z" fill="#f48f00"/>
        <path style="fill:#ef7043;" d="M72.79-61.87C41.41-18.45 6.15 25.08-23.83 67c13.58 8.45 27.21 17 40.73 25.61-2.61.52 62.46-151 64.83-151.59 2.38-.39-8.95-2.9-8.94-2.89z"/>
        <path d="M39.88-61.41c.78.28-89.06 82.17-117 82.7-28.31 1.13 18.22 25.3 18.42 25.48C-59.2 47 16.44 19.41 65-61.8q-12.54.15-25.12.39z" fill="#f43600"/>
        <path d="M3.41-57.56C4.09-57.2-91.53 6.61-92 15.23c-.52 9.26 19.39 11.31 19.37 11.32-.3.83 114.86-79.13 112.47-88-1.22-8.41-36.3 3.86-36.43 3.89z" fill="#ee0075"/>
        <path d="M-37.87-56c.52.2-66.92 38.44-60.87 60.78 6.67 22.82 10.87 8.53 10.74 8.5C-57.83-9.57-26.55-33.45 3.41-57.56q-20.64.63-41.28 1.56z" fill="#f30040"/>
      </g>
    </g>
  </g>
</svg>
