<svg xmlns="http://www.w3.org/2000/svg" xmlns:xlink="http://www.w3.org/1999/xlink" viewBox="0 0 70.4 60.35">
  <defs/>
  <defs>
    <radialGradient id="futuregrit_163" cx="941.29" cy="33.04" r="50.88" gradientTransform="matrix(.53 0 0 1.07 -466.9 20.78)" gradientUnits="userSpaceOnUse">
      <stop offset="0" stop-color="#ffbd00"/>
      <stop offset="1" stop-color="#ff772c"/>
    </radialGradient>
    <linearGradient id="futuregrit_160" x1="35.21" x2="35.21" y1="57.08" y2=".57" gradientUnits="userSpaceOnUse">
      <stop offset="0" stop-color="#fff300"/>
      <stop offset="1" stop-color="#ff9700"/>
    </linearGradient>
    <linearGradient id="futuregrit_169" x1="35.21" x2="35.21" y1="55.98" y2="1.2" gradientUnits="userSpaceOnUse">
      <stop offset="0" stop-color="#fc0"/>
      <stop offset="1" stop-color="#ff9700"/>
    </linearGradient>
    <linearGradient id="futuregrit_155" x1="-2353.9" x2="-2293.25" y1="48.98" y2="48.98" gradientTransform="matrix(-1 0 0 1 -2288.11 0)" gradientUnits="userSpaceOnUse">
      <stop offset="0" stop-color="#ff6140"/>
      <stop offset=".1" stop-color="#ef5b3c"/>
      <stop offset=".29" stop-color="#c54b31"/>
      <stop offset=".55" stop-color="#813120"/>
      <stop offset=".88" stop-color="#240e09"/>
      <stop offset="1"/>
    </linearGradient>
    <linearGradient id="futuregrit_172" x1="4.15" x2="68.66" y1="13.39" y2="13.39" gradientUnits="userSpaceOnUse">
      <stop offset="0" stop-color="#ff9840"/>
      <stop offset=".1" stop-color="#ef8e3c"/>
      <stop offset=".29" stop-color="#c57531"/>
      <stop offset=".55" stop-color="#814d20"/>
      <stop offset=".88" stop-color="#241609"/>
      <stop offset="1"/>
    </linearGradient>
  </defs>
  <g style="isolation:isolate">
    <g id="Layer_2">
      <g id="Instruction">
        <g id="Back_Button">
          <path fill="url(#futuregrit_163)" d="M1.19 51.21c2.44 10.17 61.62 13 66.65 2.46 4.58-9.61 2.37-41.29-1.54-48.15C61-3.83 8.73 0 4.41 7.36.38 14.22-1.35 40.67 1.19 51.21z"/>
          <path fill="url(#futuregrit_160)" d="M1.38 49.41c2.44 9.81 61.26 10.51 66.28.32 4.56-9.27 2.42-37.19-1.48-43.8C60.86-3.09 8.83.52 4.52 7.61c-4.01 6.61-5.66 31.64-3.14 41.8z"/>
          <path fill="url(#futuregrit_169)" d="M2.12 48.55c2.38 9.52 59.93 10.2 64.84.3 4.46-9 2.36-36-1.46-42.42C60.3-2.32 9.4 1.09 5.19 8 1.26 14.4-.35 38.68 2.12 48.55z"/>
          <path fill="#ff5200" stroke="#ff5200" stroke-miterlimit="10" stroke-width="3" d="M33.91 25v-5.23a2.22 2.22 0 00-3.73-1.64l-1 .89c-3.16 2.92-8.44 7.81-11.15 10.53a2.1 2.1 0 000 2.74c2.71 2.71 8 7.6 11.15 10.52l1 .89a2.18 2.18 0 001.5.6 2.23 2.23 0 002.23-2.23v-5.2c10.71.15 17.84 3.53 17.84 6.68a.75.75 0 101.49 0c0-10.01-8.6-18.2-19.33-18.55zm-.74 10.4a.74.74 0 00-.74.74v6a.74.74 0 01-1.24.54l-1-.89c-3.15-2.91-8.42-7.79-11.1-10.48a.52.52 0 01-.08-.32.49.49 0 01.08-.32c2.68-2.7 8-7.57 11.1-10.49l1-.89a.74.74 0 01.49-.2.76.76 0 01.75.75v5.94a.75.75 0 00.74.75c8.94 0 16.42 5.83 18.19 13.58-3.18-2.85-10.04-4.73-18.19-4.73z"/>
          <path d="M65.79 49s-26.85 9.49-60.65 1.14c0 0 22 3.81 31.73 0 16.59-6.46 24.56-8.37 28.92-1.14z" style="mix-blend-mode:screen" fill="url(#futuregrit_155)"/>
          <path d="M64.21 50.86c-.3-1.09 2.4-6 3.09-6s.07 3.27-.34 4-2.59 2.54-2.75 2z" style="fill:#fff"/>
          <path d="M5 8S44.82-5.51 65.64 6.58c0 0 2.18 1.86 3 9.09 0 0-1.67-6.36-14.12-5.45C43.81 11 27.19 30.17 9.82 24 1.09 20.89 5 8 5 8z" style="mix-blend-mode:screen" fill="url(#futuregrit_172)"/>
          <path d="M5 13.6S3.14 8.39 6.8 6.54 22.49 2.93 23.09 3.4s-5.08 2.65-8 3.8S6.53 14.48 5 13.6z" style="fill:#fff"/>
        </g>
      </g>
    </g>
  </g>
</svg>
