<svg xmlns="http://www.w3.org/2000/svg" xmlns:xlink="http://www.w3.org/1999/xlink" viewBox="0 0 360 155">
  <defs/>
  <defs>
    <linearGradient id="linear-gradient" x1="534.2" y1="35.66" x2="527.4" y2="68.16" gradientUnits="userSpaceOnUse">
      <stop offset=".09" stop-color="#ffad47"/>
      <stop offset=".28" stop-color="#ffa742"/>
      <stop offset=".52" stop-color="#ff9733"/>
      <stop offset=".78" stop-color="#ff7d1a"/>
      <stop offset="1" stop-color="#ff6200"/>
    </linearGradient>
    <linearGradient id="linear-gradient-2" x1="577.1" y1="73.12" x2="558.99" y2="115.05" gradientUnits="userSpaceOnUse">
      <stop offset="0" stop-color="#5fd4ff"/>
      <stop offset=".15" stop-color="#5cceff"/>
      <stop offset=".35" stop-color="#53beff"/>
      <stop offset=".57" stop-color="#45a4ff"/>
      <stop offset=".81" stop-color="#317fff"/>
      <stop offset=".95" stop-color="#2365ff"/>
    </linearGradient>
    <linearGradient id="linear-gradient-3" x1="553.03" y1="94.76" x2="540.18" y2="137.47" gradientUnits="userSpaceOnUse">
      <stop offset=".16" stop-color="#3562ff"/>
      <stop offset=".3" stop-color="#305cf6"/>
      <stop offset=".53" stop-color="#214ade"/>
      <stop offset=".82" stop-color="#092fb7"/>
      <stop offset=".92" stop-color="#0024a8"/>
    </linearGradient>
    <linearGradient id="linear-gradient-4" x1="248.79" y1="20.54" x2="264.29" y2="56.06" gradientUnits="userSpaceOnUse">
      <stop offset=".1" stop-color="#ff6182"/>
      <stop offset=".26" stop-color="#fe5b81"/>
      <stop offset=".46" stop-color="#fb4b7d"/>
      <stop offset=".69" stop-color="#f63176"/>
      <stop offset=".93" stop-color="#ef0c6d"/>
      <stop offset="1" stop-color="#ed006a"/>
    </linearGradient>
    <linearGradient id="linear-gradient-5" x1="104.18" y1="35.66" x2="97.38" y2="68.16" xlink:href="#linear-gradient"/>
    <linearGradient id="linear-gradient-6" x1="302.81" y1="25.58" x2="317.55" y2="64.13" gradientUnits="userSpaceOnUse">
      <stop offset=".09" stop-color="#ffe647"/>
      <stop offset=".23" stop-color="#ffe044"/>
      <stop offset=".41" stop-color="#ffd03b"/>
      <stop offset=".61" stop-color="#ffb62c"/>
      <stop offset=".83" stop-color="#ff9118"/>
      <stop offset="1" stop-color="#ff6f05"/>
    </linearGradient>
    <linearGradient id="linear-gradient-7" x1="356.35" y1="42.62" x2="366.56" y2="87.47" gradientUnits="userSpaceOnUse">
      <stop offset=".14" stop-color="#76bf51"/>
      <stop offset=".27" stop-color="#70ba4e"/>
      <stop offset=".44" stop-color="#60aa45"/>
      <stop offset=".63" stop-color="#469136"/>
      <stop offset=".84" stop-color="#216d22"/>
      <stop offset="1" stop-color="#004d10"/>
    </linearGradient>
    <linearGradient id="linear-gradient-8" x1="147.08" y1="73.12" x2="128.97" y2="115.05" xlink:href="#linear-gradient-2"/>
    <linearGradient id="linear-gradient-9" x1="123.01" y1="94.76" x2="110.16" y2="137.47" xlink:href="#linear-gradient-3"/>
    <linearGradient id="linear-gradient-10" x1="297.54" y1="87.09" x2="313.04" y2="122.24" gradientUnits="userSpaceOnUse">
      <stop offset=".03" stop-color="#a050ff"/>
      <stop offset=".2" stop-color="#9848f6"/>
      <stop offset=".49" stop-color="#8233de"/>
      <stop offset=".82" stop-color="#6114ba"/>
    </linearGradient>
    <clipPath id="clip-path">
      <path style="fill:none;" d="M430.02-485h360v640h-360z"/>
    </clipPath>
    <clipPath id="clip-path-3">
      <path style="fill:none;" d="M0-.78h360V155H0z"/>
    </clipPath>
  </defs>
  <g id="Home">
    <g clip-path="url(#clip-path)" id="Background">
      <path style="fill:none;" d="M430.02-485h360v640h-360z" />
      <g>
        <path d="M724.85 112.43a1.37 1.37 0 00.2-.23.86.86 0 00.13-.42.88.88 0 00-.12-.41c0-.06-.1-.11-.14-.17a2 2 0 00-.2-.22 2.32 2.32 0 00-.3-.22c-.08-.05-.15-.11-.24-.16s-.31-.17-.49-.25l-.23-.11-.69-.27-.19-.06c-.28-.1-.59-.19-.92-.29h-.12c-.35-.1-.73-.19-1.13-.29-.42-.1-.86-.19-1.33-.28a100.11 100.11 0 00-17.85-1.38H700a8.13 8.13 0 00-7.7-6.41 7.46 7.46 0 00-3.13.68c-.91-6.64-6.18-11.75-12.56-11.75a11.42 11.42 0 00-1.55.11 9.8 9.8 0 00-1.2.24h-.28a12.48 12.48 0 00-2.85 1.17 16.74 16.74 0 00.23-1.75 14.72 14.72 0 00.07-1.49 18.18 18.18 0 00-.17-2.35l-.06-.42c-1.21-7.43-7.18-13.08-14.38-13.08a13.86 13.86 0 00-9.14 3.49c-3.61-10.11-12.62-17.3-23.21-17.3a23.92 23.92 0 00-18.32 8.79H605c-.61-6-5.27-10.61-10.94-10.61A10.37 10.37 0 00588 59a25.91 25.91 0 00-20.74-10.8 25.08 25.08 0 00-14.5 4.66C552.24 38.48 541.36 27 528 27a23.71 23.71 0 00-16.77 7.11c-1.68-9.56-9.42-16.79-18.73-16.79-8 0-14.77 5.29-17.64 12.8A22.82 22.82 0 00457.57 22c-12.68 0-23 10.8-23.65 24.37a17.08 17.08 0 00-4.65-.67 18.22 18.22 0 00-16 10.22 19.34 19.34 0 00-9.27-2.41c-11.45 0-20.73 10.06-20.73 22.48 0 .75 0 1.48.1 2.2a14.59 14.59 0 00-4.45-.7c-8 0-14.6 6.53-15.51 15-9.73.68-17.88 3.46-22.07 7.29h-1.93c-13 0-23.86 2.05-26.23 4.77v.07a2.14 2.14 0 00-.19.26l-.06.1a2.6 2.6 0 00-.1.25v.1a1.32 1.32 0 000 .34 1.49 1.49 0 00.05.36v.1c0 .09.08.19.13.28v.07c1.79 2.87 12.95 5.08 26.46 5.08h1.93c4.84 4.42 15 7.48 26.7 7.48 9.41 0 17.78-2 23.23-5a20.22 20.22 0 0016.56 9c7.84 0 14.67-4.72 18.19-11.69a23.06 23.06 0 0018.83 10.13 22.68 22.68 0 0016.44-7.22 17.55 17.55 0 0013.37 6.35 18.07 18.07 0 0016.05-10.39c5.4 8 14.09 13.16 23.91 13.16a28.83 28.83 0 0023.17-12.08c3.55 7.7 10.87 13 19.35 13 7.92 0 14.83-4.63 18.6-11.52a17 17 0 0014.08 7.83c7.22 0 13.41-4.77 16-11.57a17.26 17.26 0 0015.42 10.19 16.68 16.68 0 0012.45-5.71 12.31 12.31 0 0010.67 6.48 12 12 0 009-4.15 8.94 8.94 0 0016-.6 12 12 0 007.21 2.45 12.07 12.07 0 007.87-3l1.27.2a7.86 7.86 0 006.55 3.69 7.71 7.71 0 005.82-2.75h3.1a104.32 104.32 0 0017-1.23h.09a25.45 25.45 0 005-1.3h.07c.27-.11.52-.23.73-.34l.14-.1a4.19 4.19 0 00.44-.3 1.29 1.29 0 00.14-.14z" fill="url(#linear-gradient)"/>
        <path d="M755.47 140.45a1.94 1.94 0 00.2-.21.74.74 0 00.12-.39.71.71 0 00-.12-.38 1 1 0 00-.14-.15 1.29 1.29 0 00-.2-.21 2.6 2.6 0 00-.3-.2l-.23-.15-.49-.23-.23-.1-.7-.24-.19-.07-.91-.26h-.12c-.36-.09-.73-.18-1.13-.26H751c-.41-.09-.86-.18-1.32-.26A108.64 108.64 0 00731.8 136h-1.22a8 8 0 00-7.71-5.91 8.13 8.13 0 00-3.13.63 12.69 12.69 0 00-12.55-10.83 13.17 13.17 0 00-1.55.09c-.41 0-.81.14-1.2.22l-.29.06a12.88 12.88 0 00-2.85 1.08 14.37 14.37 0 00.24-1.62c0-.45.07-.91.07-1.37a14.12 14.12 0 00-.18-2.17c0-.13 0-.26-.06-.39a14.6 14.6 0 00-23.52-8.79 24.77 24.77 0 00-41.48-7.86h-.73a11 11 0 00-17-8 26.7 26.7 0 00-35.27-5.61 24.77 24.77 0 00-41.54-17.29 19.07 19.07 0 00-36.37-3.68 23.66 23.66 0 00-40.92 15 18.27 18.27 0 00-20.71 8.81 20.51 20.51 0 00-9.25-2.2 20.73 20.73 0 00-20.73 20.73 19.42 19.42 0 00.11 2A15.62 15.62 0 00394 122c-9.73.63-17.88 3.2-22.07 6.73H370c-13 0-23.85 1.9-26.22 4.4l-.06.06a2.35 2.35 0 00-.19.25.41.41 0 010 .09 1.63 1.63 0 00-.11.23v.09a1.12 1.12 0 00-.05.31 1.27 1.27 0 00.05.34v.08a1.11 1.11 0 00.13.27.21.21 0 000 .06c1.79 2.65 12.95 4.69 26.45 4.69h1.93c4.85 4.07 15 6.89 26.7 6.89 9.41 0 17.78-1.81 23.24-4.63a20.7 20.7 0 0034.74-2.49 23.67 23.67 0 0035.27 2.63 18.22 18.22 0 0029.41-3.72 29.66 29.66 0 0047.09 1 21.59 21.59 0 0037.94 1.36 17.37 17.37 0 0030.12-3.44 17.36 17.36 0 0027.87 4.13 12.47 12.47 0 0019.69 2.29 9.29 9.29 0 0015.94-.55 12.69 12.69 0 0015.08-.48l1.27.18a8 8 0 0012.38.87h3.1a113.23 113.23 0 0017-1.13h.08a27.64 27.64 0 005-1.2h.08c.26-.11.51-.21.72-.32l.14-.09a4.45 4.45 0 00.45-.27c.14-.07.17-.13.23-.18z" fill="url(#linear-gradient-2)"/>
        <path d="M324.75 169.09c0 .08.09.15.13.23a3.91 3.91 0 00.3.45 2.73 2.73 0 00.23.25c.13.13.25.26.4.39s.21.17.33.25.32.23.49.35l.42.24c.19.11.39.21.6.31l.5.24c.22.1.46.19.7.28l.58.22.81.26.64.2 1 .26 1.12.26 1.21.25 1 .17.93.15 1.12.16.94.12 1.23.14 1 .09 1.33.12 1 .07 1.44.09 1 .05 1.56.07h.21c1.61 0 3.28.08 5 .08h5c12.48-.18 18.46-1 19.9-2.32a9.1 9.1 0 005.08 3.87h5.21a9.12 9.12 0 004-2.49 14.11 14.11 0 001.78 2.49h341c1-.4 1.6-.84 1.6-1.25 0-1.86-9.77-2.64-14.3-2.64l-.1-.1a8.92 8.92 0 00-6.1-2.73 5 5 0 00-3.84 1.19 4.06 4.06 0 00-3-1.37 4.08 4.08 0 01-6.1-1 4.11 4.11 0 00-2.92 1.21 6.69 6.69 0 00-6.53-5.25 6.31 6.31 0 00-1.64.23 8.58 8.58 0 00-10.44-2.15 5.82 5.82 0 00-9.06-3.54 5.75 5.75 0 00-8-.75 7.77 7.77 0 00-9.89-6.09c0-.45.08-.9.08-1.36a12.36 12.36 0 00-21.5-8.33 23.39 23.39 0 00-9.63-4.7 5.37 5.37 0 00.11-1.06 5.81 5.81 0 00-8.5-5.18 19.24 19.24 0 00-16.84-9.94h-.22a19.22 19.22 0 00-28.7-19.38 19.25 19.25 0 00-17-12 11.24 11.24 0 00-19.2-6 28.31 28.31 0 00-29-3.2 32.59 32.59 0 00-56.7 3.38 19.46 19.46 0 00-3.17-.28 20.28 20.28 0 00-20.28 20.28 19.85 19.85 0 00.4 4h-.23a20.25 20.25 0 00-20 16.89 18.72 18.72 0 00-14.24 13.4 13.76 13.76 0 00-2.89-.31 13.57 13.57 0 00-13.57 13.57v.23a9 9 0 00-15.65 5.43 6.74 6.74 0 00-11.78 3.71c-6.16.46-11.65 1-15.43 2.14l-.35.12-.78.26-.43.17c-.24.09-.47.19-.69.29l-.38.2c-.2.1-.4.21-.58.32a3.88 3.88 0 00-.33.23 5.37 5.37 0 00-.45.35 2.37 2.37 0 00-.27.28 2.76 2.76 0 00-.33.36 2.5 2.5 0 00-.21.35 3.24 3.24 0 00-.2.36 3.59 3.59 0 00-.12.47c0 .11-.06.21-.08.32a3.23 3.23 0 000 .87 2.33 2.33 0 00.27.7z" fill="url(#linear-gradient-3)"/>
        <path style="fill:#ffe1cc;" d="M988.76 169.52a8.13 8.13 0 00-3.13.63 12.7 12.7 0 00-12.55-10.83 13.17 13.17 0 00-1.55.09 12.29 12.29 0 00-1.21.23l-.28.05a12.88 12.88 0 00-2.85 1.08 14.37 14.37 0 00.24-1.62c0-.45.07-.91.07-1.37a14.12 14.12 0 00-.18-2.17c0-.13 0-.26-.06-.39a14.6 14.6 0 00-23.52-8.84 24.77 24.77 0 00-41.49-7.86h-.72a11 11 0 00-10.93-9.78 10.88 10.88 0 00-6.07 1.83 26.67 26.67 0 00-35.27-5.61 24.77 24.77 0 00-41.54-17.3 19.07 19.07 0 00-36.37-3.66 23.67 23.67 0 00-40.92 15 18.27 18.27 0 00-20.71 8.81 20.69 20.69 0 00-30 18.54 19.23 19.23 0 00.11 2 15.62 15.62 0 00-20 13.14c-7.54.48-14.13 2.14-18.66 4.5.1-.55.17-1.11.22-1.67a14.72 14.72 0 00.07-1.49 18.18 18.18 0 00-.17-2.35l-.06-.43c-1.21-7.43-7.18-13.08-14.38-13.08a13.86 13.86 0 00-9.14 3.49c-3.57-10.12-12.58-17.33-23.17-17.33a23.93 23.93 0 00-18.32 8.8h-.72c-.61-6-5.27-10.61-10.94-10.61a10.37 10.37 0 00-6.07 2 25.93 25.93 0 00-20.76-10.74 25.06 25.06 0 00-14.5 4.66c-.52-14.38-11.4-25.87-24.78-25.87a23.71 23.71 0 00-16.77 7.11c-1.68-9.56-9.42-16.79-18.73-16.79-8 0-14.78 5.29-17.64 12.8a22.79 22.79 0 00-17.27-8.14c-12.68 0-23 10.79-23.65 24.37a17.08 17.08 0 00-4.65-.67 18.2 18.2 0 00-16.05 10.22 19.34 19.34 0 00-9.25-2.38c-11.45 0-20.73 10.06-20.73 22.48 0 .74 0 1.48.1 2.2a14.6 14.6 0 00-4.45-.71c-8 0-14.6 6.54-15.51 14.95-9.73.69-17.88 3.47-22.07 7.3h-1.93c-4.18 0-8.13.21-11.66 49.91h311.48l49.65-5.1h336.85c-1.17-3.08-4.04-49.4-7.41-49.4z"/>
      </g>
    </g>
  </g>
  <g id="Clouds_Asset">
    <g clip-path="url(#clip-path-3)" id="Clouds">
      <path d="M71.75 90.27a1.24 1.24 0 01-.19-.21.7.7 0 01-.13-.39.77.77 0 01.12-.37s.1-.1.14-.16a1 1 0 01.2-.2 2.23 2.23 0 01.3-.2l.24-.15c.14-.08.31-.15.49-.23l.22-.1.7-.25L74 88c.28-.09.59-.18.91-.26h.12l1.14-.27 1.32-.26a108.84 108.84 0 0117.85-1.27h1.21a8 8 0 0110.84-5.28A12.7 12.7 0 01120 69.74a13 13 0 011.55.1 12.26 12.26 0 011.21.22h.28a13.2 13.2 0 012.85 1.08c-.11-.53-.18-1.07-.24-1.62s-.07-.9-.07-1.37a15.62 15.62 0 01.18-2.17l.06-.38a14.6 14.6 0 0123.52-8.84 24.77 24.77 0 0141.49-7.87h.72a11 11 0 0117-7.95 26.66 26.66 0 0135.26-5.61 24.77 24.77 0 0141.54-17.29 19.08 19.08 0 0136.38-3.68 23.65 23.65 0 0140.91 15 18.28 18.28 0 0120.71 8.8 20.71 20.71 0 0130 18.54c0 .69 0 1.36-.1 2a15.61 15.61 0 0120 13.13c9.73.63 17.88 3.2 22.07 6.73h1.93c13 0 23.86 1.89 26.23 4.4l.05.06.19.24a.41.41 0 01.05.09 1.58 1.58 0 01.11.23.32.32 0 010 .09 1.19 1.19 0 01.05.32 1.26 1.26 0 01-.05.33v.09a1.74 1.74 0 01-.14.27v.06c-1.8 2.64-12.95 4.68-26.46 4.68h-1.93c-4.84 4.08-15 6.89-26.7 6.89-9.41 0-17.78-1.81-23.23-4.62a20.72 20.72 0 01-34.75-2.5 23.65 23.65 0 01-35.27 2.69 18.22 18.22 0 01-29.42-3.73 29.66 29.66 0 01-47.08 1 21.61 21.61 0 01-38 1.36A17.37 17.37 0 01190.78 87a17.35 17.35 0 01-27.87 4.14 12.46 12.46 0 01-19.71 2.28 9.3 9.3 0 01-15.95-.55 12.67 12.67 0 01-15.08-.49l-1.27.19a8 8 0 01-12.38.86h-3.09a113.13 113.13 0 01-17-1.13h-.09a27.13 27.13 0 01-5-1.19h-.08c-.26-.1-.51-.21-.72-.31l-.14-.09a3 3 0 01-.44-.28 1.37 1.37 0 01-.21-.16z" fill="url(#linear-gradient-4)"/>
      <path d="M294.83 112.43a1.37 1.37 0 00.2-.23.86.86 0 00.13-.42.88.88 0 00-.12-.41c0-.06-.1-.11-.14-.17a2 2 0 00-.2-.22 2.32 2.32 0 00-.3-.22l-.24-.16c-.14-.08-.31-.17-.49-.25l-.23-.11-.69-.27-.19-.06c-.28-.1-.59-.19-.92-.29h-.12c-.35-.1-.73-.19-1.13-.29h-.05c-.42-.1-.86-.19-1.33-.28a100.11 100.11 0 00-17.85-1.38h-1.22a8.13 8.13 0 00-7.7-6.41 7.46 7.46 0 00-3.13.68c-.91-6.64-6.18-11.75-12.56-11.75a11.42 11.42 0 00-1.55.11 9.8 9.8 0 00-1.2.24h-.28a12.48 12.48 0 00-2.85 1.17 16.74 16.74 0 00.23-1.71 14.72 14.72 0 00.07-1.49 18.18 18.18 0 00-.17-2.35l-.06-.42c-1.21-7.43-7.18-13.08-14.38-13.08a13.86 13.86 0 00-9.14 3.49c-3.57-10.15-12.58-17.34-23.17-17.34a23.92 23.92 0 00-18.32 8.79H175c-.61-6-5.27-10.61-10.94-10.61A10.37 10.37 0 00158 59a25.91 25.91 0 00-20.76-10.8 25.08 25.08 0 00-14.5 4.66C122.22 38.48 111.34 27 98 27a23.71 23.71 0 00-16.81 7.1c-1.68-9.56-9.42-16.79-18.73-16.79-8 0-14.77 5.29-17.64 12.8A22.82 22.82 0 0027.55 22c-12.68 0-23 10.8-23.65 24.37a17.08 17.08 0 00-4.65-.67 18.22 18.22 0 00-16 10.22A19.34 19.34 0 00-26 53.51c-11.5 0-20.78 10.06-20.78 22.49 0 .75 0 1.48.1 2.2a14.59 14.59 0 00-4.45-.7c-8 0-14.6 6.53-15.51 15-9.73.68-17.88 3.46-22.07 7.29h-1.93c-13 0-23.86 2.05-26.23 4.77v.07a2.14 2.14 0 00-.19.26l-.06.1a2.6 2.6 0 00-.1.25v.1a1.32 1.32 0 000 .34 1.49 1.49 0 000 .36v.1c0 .09.08.19.13.28v.07c1.79 2.87 12.95 5.08 26.46 5.08h1.93c4.84 4.42 15 7.48 26.7 7.48 9.41 0 17.78-2 23.23-5a20.22 20.22 0 0016.56 9c7.84 0 14.67-4.72 18.19-11.69a23.06 23.06 0 0018.82 9.99 22.68 22.68 0 0016.44-7.22 17.55 17.55 0 0013.37 6.35 18.07 18.07 0 0016-10.39c5.4 8 14.09 13.16 23.91 13.16a28.83 28.83 0 0023.17-12.08c3.55 7.7 10.87 13 19.35 13 7.92 0 14.83-4.63 18.6-11.52a17 17 0 0014.08 7.83c7.22 0 13.41-4.77 16-11.57a17.26 17.26 0 0015.42 10.19 16.68 16.68 0 0012.45-5.71A12.31 12.31 0 00214.4 120a12 12 0 009-4.15 8.94 8.94 0 0016-.6 12 12 0 007.21 2.45 12.07 12.07 0 007.87-3l1.27.2a7.86 7.86 0 006.55 3.69 7.71 7.71 0 005.82-2.75h3.1a104.32 104.32 0 0017-1.23h.09a25.45 25.45 0 005-1.3h.07c.27-.11.52-.23.73-.34l.14-.1a4.19 4.19 0 00.44-.3 1.29 1.29 0 00.14-.14z" fill="url(#linear-gradient-5)"/>
      <path d="M542.58 117.49a1.29 1.29 0 00.2-.21.74.74 0 00.12-.39.68.68 0 00-.12-.38 1.74 1.74 0 00-.13-.15 1.94 1.94 0 00-.2-.21 3.13 3.13 0 00-.3-.2l-.24-.15-.49-.23-.23-.1-.69-.24-.19-.07-.92-.26h-.12c-.35-.09-.73-.18-1.13-.26l-1.33-.25a108.77 108.77 0 00-17.85-1.28h-1.22a8 8 0 00-10.84-5.28A12.68 12.68 0 00494.3 97a13.3 13.3 0 00-1.55.09c-.41 0-.81.14-1.2.22-.09 0-.19 0-.28.06a12.23 12.23 0 00-2.85 1.08 14.36 14.36 0 00.23-1.62 12.44 12.44 0 00.07-1.37 14.12 14.12 0 00-.18-2.17l-.06-.39A14.61 14.61 0 00465 84a24.77 24.77 0 00-41.48-7.86h-.73a11 11 0 00-17-8 26.7 26.7 0 00-35.27-5.61 24.77 24.77 0 00-41.54-17.29 19.07 19.07 0 00-36.37-3.68 23.66 23.66 0 00-40.92 15 18.26 18.26 0 00-20.69 8.8 20.69 20.69 0 00-30 18.53c0 .69 0 1.36.1 2a15.62 15.62 0 00-20 13.13c-9.72.63-17.87 3.2-22.06 6.73h-1.93c-13 0-23.86 1.89-26.23 4.4v.06a1.5 1.5 0 00-.19.25l-.06.09a.94.94 0 00-.1.23.36.36 0 000 .09 1.12 1.12 0 00-.05.31 1.28 1.28 0 00.06.34v.08a1.66 1.66 0 00.13.27v.06c1.79 2.65 12.95 4.68 26.46 4.68h1.93c4.84 4.08 15 6.9 26.69 6.9 9.41 0 17.79-1.81 23.24-4.63a20.7 20.7 0 0034.74-2.5 23.66 23.66 0 0035.27 2.68 18.21 18.21 0 0029.41-3.73 29.67 29.67 0 0047.09 1 21.59 21.59 0 0037.94 1.36 17.38 17.38 0 0030.13-3.44 17.36 17.36 0 0027.87 4.13 12.46 12.46 0 0019.71 2.28 9.3 9.3 0 0015.95-.55 12.68 12.68 0 0015.07-.48l1.28.18a8 8 0 0012.37.87h3.1a113.13 113.13 0 0017-1.13h.08a28 28 0 005-1.2h.07a7.26 7.26 0 00.72-.32l.14-.09a3.56 3.56 0 00.45-.27c.11-.07.15-.13.2-.18z" fill="url(#linear-gradient-6)"/>
      <path d="M581.13 128.82a1.26 1.26 0 00.2-.2.75.75 0 00.13-.39.77.77 0 00-.12-.38l-.14-.15a1.94 1.94 0 00-.2-.21 2.23 2.23 0 00-.3-.2l-.24-.15c-.14-.08-.31-.15-.49-.23l-.23-.1-.69-.25-.19-.06c-.28-.09-.59-.17-.92-.26h-.12l-1.13-.27h-.05c-.42-.09-.86-.17-1.33-.25a108.84 108.84 0 00-17.85-1.27h-1.22a8 8 0 00-10.84-5.28 12.69 12.69 0 00-12.55-10.84 13.3 13.3 0 00-1.55.1 12.07 12.07 0 00-1.2.22 2.8 2.8 0 00-.28.06 12.23 12.23 0 00-2.85 1.08 14.69 14.69 0 00.23-1.62 12.44 12.44 0 00.07-1.37 15.5 15.5 0 00-.17-2.17l-.06-.39a14.6 14.6 0 00-23.52-8.84A24.77 24.77 0 00462 87.49h-.73a11 11 0 00-17-8A26.7 26.7 0 00409 73.9a24.77 24.77 0 00-41.54-17.29 19.07 19.07 0 00-36.37-3.68 23.66 23.66 0 00-40.92 15 18.27 18.27 0 00-20.7 8.8 20.71 20.71 0 00-30 18.54c0 .69 0 1.36.1 2a15.62 15.62 0 00-20 13.13c-9.72.63-17.87 3.2-22.06 6.73h-1.93c-13 0-23.86 1.89-26.23 4.4l-.05.06a2 2 0 00-.19.24l-.06.09c0 .08-.07.16-.1.23v.09a1.25 1.25 0 00-.05.32 1.35 1.35 0 00.06.34v.08a1.66 1.66 0 00.13.27.21.21 0 010 .06c1.79 2.65 13 4.68 26.46 4.68h1.93c4.84 4.08 15 6.9 26.69 6.9 9.42 0 17.79-1.81 23.24-4.63a20.72 20.72 0 0034.75-2.5 23.65 23.65 0 0035.27 2.69 18.21 18.21 0 0029.57-3.78 29.67 29.67 0 0047.09 1A21.6 21.6 0 00432 129a17.38 17.38 0 0030.13-3.44 17.36 17.36 0 0027.87 4.16 12.46 12.46 0 0019.69 2.28 9.3 9.3 0 0015.95-.55 12.67 12.67 0 0015.08-.49l1.27.19a8 8 0 0012.37.87h3.1a113.13 113.13 0 0017-1.13h.08a27.27 27.27 0 005-1.19h.07a6.41 6.41 0 00.73-.31l.14-.09a3 3 0 00.52-.3.85.85 0 00.13-.18z" fill="url(#linear-gradient-7)"/>
      <path d="M325.45 140.45a1.94 1.94 0 00.2-.21.74.74 0 00.12-.39.71.71 0 00-.12-.38 1 1 0 00-.14-.15 1.29 1.29 0 00-.2-.21 2.6 2.6 0 00-.3-.2l-.23-.15-.49-.23-.23-.1-.7-.24-.19-.07-.91-.26h-.12c-.36-.09-.73-.18-1.13-.26H321c-.41-.09-.86-.18-1.32-.26a108.64 108.64 0 00-17.9-1.34h-1.22a8 8 0 00-7.71-5.91 8.13 8.13 0 00-3.13.63 12.69 12.69 0 00-12.55-10.83 13.17 13.17 0 00-1.55.09c-.41 0-.81.14-1.2.22l-.29.06a12.88 12.88 0 00-2.85 1.08 14.37 14.37 0 00.24-1.62c0-.45.07-.91.07-1.37a14.12 14.12 0 00-.18-2.17c0-.13 0-.26-.06-.39a14.6 14.6 0 00-23.52-8.79 24.77 24.77 0 00-41.48-7.86h-.73a11 11 0 00-17-8 26.7 26.7 0 00-35.27-5.61 24.77 24.77 0 00-41.54-17.29 19.07 19.07 0 00-36.37-3.68 23.66 23.66 0 00-40.92 15 18.27 18.27 0 00-20.71 8.81 20.51 20.51 0 00-9.25-2.2 20.73 20.73 0 00-20.73 20.73 19.42 19.42 0 00.11 2 15.67 15.67 0 00-4.46-.65A15.61 15.61 0 00-36 122c-9.73.63-17.88 3.2-22.07 6.73H-60c-13 0-23.85 1.9-26.22 4.4l-.06.06a2.35 2.35 0 00-.19.25.41.41 0 010 .09 1.63 1.63 0 00-.11.23v.09a1.12 1.12 0 000 .31 1.27 1.27 0 000 .34v.08a1.11 1.11 0 00.13.27v.06c1.79 2.65 13 4.69 26.45 4.69h1.93c4.85 4.07 15 6.89 26.7 6.89 9.41 0 17.78-1.81 23.24-4.63a20.7 20.7 0 0034.74-2.49A23.67 23.67 0 0061.86 142a18.22 18.22 0 0029.41-3.72 29.66 29.66 0 0047.09 1 21.59 21.59 0 0037.94 1.36 17.37 17.37 0 0030.12-3.44 17.36 17.36 0 0027.87 4.13 12.47 12.47 0 0019.71 2.29 9.29 9.29 0 0015.94-.55 12.69 12.69 0 0015.08-.48l1.27.18a8 8 0 0012.38.87h3.1a113.23 113.23 0 0017-1.13h.08a27.64 27.64 0 005-1.2h.08c.26-.11.51-.21.72-.32l.14-.09a4.45 4.45 0 00.45-.27c.12-.07.15-.13.21-.18z" fill="url(#linear-gradient-8)"/>
      <path d="M-105.27 169.09c0 .08.09.15.13.23a3.91 3.91 0 00.3.45 2.73 2.73 0 00.23.25c.13.13.25.26.4.39s.21.17.33.25.32.23.49.35l.42.24c.19.11.39.21.6.31l.5.24c.22.1.46.19.7.28l.58.22.81.26.64.2 1 .26 1.12.26 1.21.25 1 .17.93.15 1.12.16.94.12 1.23.14 1 .09 1.33.12 1 .07 1.44.09 1 .05 1.56.07h.21c1.61 0 3.28.08 5 .08h5c12.48-.18 18.46-1 19.9-2.32a9.1 9.1 0 005.08 3.87h5.21a9.12 9.12 0 004-2.49 14.11 14.11 0 001.78 2.49h341c1-.4 1.6-.84 1.6-1.25 0-1.86-9.77-2.64-14.3-2.64l-.1-.1a8.92 8.92 0 00-6.1-2.73 5 5 0 00-3.84 1.19 4.06 4.06 0 00-3-1.37 4.12 4.12 0 00-2.6.94 4.11 4.11 0 00-6.42-.76 6.69 6.69 0 00-6.53-5.25 6.31 6.31 0 00-1.64.23 8.58 8.58 0 00-10.44-2.15 5.82 5.82 0 00-9.06-3.54 5.75 5.75 0 00-8-.75 7.77 7.77 0 00-9.89-6.09c0-.45.08-.9.08-1.36a12.36 12.36 0 00-21.5-8.33 23.39 23.39 0 00-9.63-4.7 5.37 5.37 0 00.11-1.06 5.81 5.81 0 00-8.5-5.18 19.24 19.24 0 00-16.84-9.94h-.22a19.22 19.22 0 00-28.7-19.38 19.25 19.25 0 00-17-12 11.24 11.24 0 00-19.2-6 28.31 28.31 0 00-29-3.17 32.59 32.59 0 00-56.7 3.38 19.46 19.46 0 00-3.17-.28 20.28 20.28 0 00-20.28 20.24 19.85 19.85 0 00.4 4h-.23a20.25 20.25 0 00-20 16.89A18.72 18.72 0 00-41 138.67a13.76 13.76 0 00-2.89-.31 13.57 13.57 0 00-13.57 13.57v.23a9.07 9.07 0 00-6.63-2.89 9.06 9.06 0 00-9 8.32 6.74 6.74 0 00-5.07-2.31 6.77 6.77 0 00-6.71 6c-6.16.46-11.65 1-15.43 2.14l-.35.12-.78.26-.43.17c-.24.09-.47.19-.69.29l-.38.2c-.2.1-.4.21-.58.32a3.88 3.88 0 00-.33.23 5.37 5.37 0 00-.45.35 2.37 2.37 0 00-.27.28 2.76 2.76 0 00-.33.36 2.5 2.5 0 00-.21.35 3.24 3.24 0 00-.2.36 3.59 3.59 0 00-.12.47c0 .11-.06.21-.08.32a3.23 3.23 0 000 .87 2.33 2.33 0 00.23.72z" fill="url(#linear-gradient-9)"/>
      <path d="M521.77 170.94l.18-.18a1.33 1.33 0 00.16-.28.36.36 0 000-.09.87.87 0 00.06-.32.85.85 0 00-.08-.35.75.75 0 00-.1-.17l-.1-.17a2 2 0 00-.21-.2l-.12-.12c-.09-.08-.21-.15-.32-.23l-.11-.07-.46-.24h-.08a6.31 6.31 0 00-.58-.25h-.05l-.7-.24c-.25-.08-.52-.16-.8-.23a42.18 42.18 0 00-10.59-1c-.93 0-1.84.06-2.72.11a5.83 5.83 0 00-7.16-3.54 7.83 7.83 0 00.11-1.29 8.29 8.29 0 00-8.42-8.16c-.35 0-.69.08-1 .12a8.25 8.25 0 00-6.69-3.26 8.54 8.54 0 00-1.25.14 8.22 8.22 0 00-11.66-6.33v-.72a12 12 0 00-18.69-9.69 11.12 11.12 0 00-11.28-10.68 10.89 10.89 0 00-4.05.84 19.6 19.6 0 00-28.78-15.31 15.54 15.54 0 00-10.15-3.56h-.78v-.18a15.54 15.54 0 00-20.56-14.49 22 22 0 00-33-11.52 30.17 30.17 0 00-52.32 14 23 23 0 00-19.64 17.24A25.22 25.22 0 00256.21 126a12.49 12.49 0 00-22 8.25 12.14 12.14 0 00.12 1.49 13.47 13.47 0 00.32 1.56 18.82 18.82 0 00-3.7-.62c-.42 0-.85-.05-1.27-.05a19.36 19.36 0 00-10.81 3.28 13.52 13.52 0 00-23 8.15h-.46a15.62 15.62 0 00-15.34 14.47 10 10 0 00-8.16 4.42c-1.94-.18-4-.28-6.13-.28-9.21 0-17 1.8-19.51 4.27z" fill="url(#linear-gradient-10)"/>
      <path style="fill:#ffe1cc;" d="M558.74 169.52a8.13 8.13 0 00-3.13.63 12.7 12.7 0 00-12.55-10.83 13.17 13.17 0 00-1.55.09 12.29 12.29 0 00-1.21.23l-.28.05a12.88 12.88 0 00-2.85 1.08 14.37 14.37 0 00.24-1.62c0-.45.07-.91.07-1.37a14.12 14.12 0 00-.18-2.17c0-.13 0-.26-.06-.39a14.6 14.6 0 00-23.52-8.84 24.77 24.77 0 00-41.49-7.86h-.72a11 11 0 00-10.93-9.78 10.88 10.88 0 00-6.07 1.83 26.67 26.67 0 00-35.27-5.61 24.77 24.77 0 00-41.54-17.3 19.07 19.07 0 00-36.37-3.66 23.67 23.67 0 00-40.92 15 18.27 18.27 0 00-20.71 8.81 20.69 20.69 0 00-30 18.54 19.23 19.23 0 00.11 2 15.62 15.62 0 00-20 13.14c-7.54.48-14.13 2.14-18.66 4.5.1-.55.17-1.11.22-1.67a14.72 14.72 0 00.07-1.49 18.18 18.18 0 00-.17-2.35l-.06-.43c-1.21-7.43-7.18-13.08-14.38-13.08a13.86 13.86 0 00-9.14 3.49c-3.57-10.12-12.58-17.33-23.17-17.33a23.93 23.93 0 00-18.32 8.8h-.72c-.61-6-5.27-10.61-10.94-10.61a10.37 10.37 0 00-6.07 2 25.93 25.93 0 00-20.76-10.74 25.06 25.06 0 00-14.5 4.66c-.52-14.38-11.4-25.87-24.78-25.87a23.71 23.71 0 00-16.77 7.11C50 98.81 42.29 91.58 33 91.58c-8 0-14.78 5.29-17.64 12.8a22.79 22.79 0 00-17.29-8.14c-12.68 0-23 10.79-23.65 24.37a17.08 17.08 0 00-4.65-.67 18.2 18.2 0 00-16 10.22 19.34 19.34 0 00-9.25-2.38c-11.45 0-20.73 10.06-20.73 22.48 0 .74 0 1.48.1 2.2a14.6 14.6 0 00-4.45-.71c-8 0-14.6 6.54-15.51 14.95-9.73.69-17.88 3.47-22.07 7.3h-1.93c-4.18 0-8.13.21-11.66 49.91h311.38l49.65-5.1h336.85c-1.15-2.97-4.04-49.29-7.41-49.29z"/>
      <g id="Star">
        <path style="fill:#fff;" d="M187.9 28.92c-2.56.63-3.07 1.14-3.7 3.7-.63-2.56-1.14-3.07-3.7-3.7 2.56-.63 3.07-1.13 3.7-3.7.63 2.57 1.14 3.07 3.7 3.7zM201.9 71.05c-3.63.89-4.35 1.61-5.23 5.23-.89-3.62-1.61-4.34-5.24-5.23 3.63-.89 4.35-1.61 5.24-5.24.88 3.63 1.6 4.35 5.23 5.24zM270.15 73.53c-1.83.45-2.2.82-2.65 2.65-.44-1.83-.81-2.2-2.64-2.65 1.83-.44 2.2-.81 2.64-2.64.5 1.83.82 2.2 2.65 2.64zM307.27 43.7c-2.69.65-3.23 1.19-3.88 3.88-.66-2.69-1.2-3.23-3.88-3.88 2.68-.66 3.22-1.2 3.88-3.88.61 2.68 1.19 3.18 3.88 3.88zM272 53.76c-2.9.72-3.48 1.29-4.19 4.2-.71-2.91-1.29-3.48-4.19-4.2 2.9-.71 3.48-1.28 4.19-4.19.7 2.91 1.28 3.48 4.19 4.19zM287.37 134.18c-2.68.65-3.22 1.19-3.88 3.88-.65-2.69-1.19-3.23-3.88-3.88 2.69-.66 3.23-1.2 3.88-3.88.66 2.7 1.2 3.22 3.88 3.88zM249.56 125.8c-2.69.66-3.22 1.19-3.88 3.88-.66-2.69-1.19-3.22-3.88-3.88 2.69-.66 3.22-1.19 3.88-3.88.66 2.69 1.19 3.22 3.88 3.88zM237.12 76.06c-2.69.65-3.22 1.19-3.88 3.88-.66-2.69-1.19-3.23-3.88-3.88 2.69-.66 3.22-1.2 3.88-3.88.66 2.68 1.19 3.22 3.88 3.88zM339.94 23.68c-2.18.53-2.61 1-3.14 3.14-.54-2.18-1-2.61-3.15-3.14 2.18-.54 2.61-1 3.15-3.15.53 2.18.96 2.61 3.14 3.15zM341.05 122.88c-.74.18-.89.33-1.07 1.07-.18-.74-.32-.89-1.06-1.07.74-.18.88-.32 1.06-1.06.18.74.33.88 1.07 1.06zM291.37 26.66c-1.07.26-1.28.47-1.54 1.54-.26-1.07-.47-1.28-1.54-1.54 1.07-.26 1.28-.47 1.54-1.54.26 1.07.47 1.28 1.54 1.54zM219.7 103.12c-4.24 1-5.08 1.88-6.11 6.11-1-4.23-1.88-5.07-6.11-6.11 4.23-1 5.07-1.88 6.11-6.11 1.03 4.23 1.87 5.07 6.11 6.11zM361 69.65c-4.23 1-5.07 1.87-6.11 6.11-1-4.24-1.87-5.08-6.11-6.11 4.24-1 5.08-1.88 6.11-6.11 1.04 4.23 1.88 5.07 6.11 6.11zM349.58 105.45c-3.18.78-3.81 1.41-4.58 4.58-.78-3.17-1.41-3.8-4.59-4.58 3.18-.78 3.81-1.41 4.59-4.58.77 3.13 1.4 3.8 4.58 4.58zM198.37 58c-3.67.9-4.39 1.63-5.29 5.29-.9-3.66-1.63-4.39-5.3-5.29 3.67-.9 4.4-1.63 5.3-5.29.92 3.61 1.62 4.34 5.29 5.29zM170 110.05c-2.67.65-3.2 1.18-3.86 3.86-.65-2.68-1.18-3.21-3.86-3.86 2.68-.66 3.21-1.19 3.86-3.86.62 2.67 1.15 3.2 3.86 3.86zM146.46 66.82c-2 .48-2.36.87-2.85 2.85-.48-2-.87-2.37-2.84-2.85 2-.48 2.36-.87 2.84-2.84.49 2.02.88 2.36 2.85 2.84zM101.61 107.66c-1.77.43-2.12.78-2.56 2.56-.43-1.78-.78-2.13-2.56-2.56 1.78-.44 2.13-.79 2.56-2.56.44 1.77.79 2.12 2.56 2.56zM99 65.05c-3.45.85-4.14 1.53-5 5-.85-3.46-1.54-4.14-5-5 3.45-.84 4.14-1.53 5-5 .88 3.47 1.57 4.16 5 5zM73.32 53.47c-3.7.91-4.43 1.64-5.34 5.34-.91-3.7-1.64-4.43-5.34-5.34 3.7-.9 4.43-1.64 5.34-5.33.91 3.69 1.64 4.43 5.34 5.33zM27.14 57c-1.72.43-2.06.77-2.48 2.49-.43-1.72-.77-2.06-2.49-2.49 1.72-.42 2.06-.76 2.49-2.48.42 1.72.76 2.06 2.48 2.48zM340.1 49.57c-1.43.35-1.72.64-2.07 2.07-.35-1.43-.63-1.72-2.07-2.07 1.44-.35 1.72-.63 2.07-2.07.35 1.44.64 1.72 2.07 2.07zM72.48 129.68c-3.12.76-3.74 1.38-4.5 4.5-.76-3.12-1.38-3.74-4.5-4.5 3.12-.76 3.74-1.38 4.5-4.5.76 3.12 1.38 3.74 4.5 4.5zM30.28 110.22c-2.17.53-2.6 1-3.14 3.13-.53-2.17-1-2.6-3.13-3.13 2.17-.53 2.6-1 3.13-3.14.54 2.18.97 2.61 3.14 3.14z"/>
      </g>
    </g>
  </g>
</svg>
