<svg xmlns="http://www.w3.org/2000/svg" xmlns:xlink="http://www.w3.org/1999/xlink" viewBox="0 0 208.94 27.62">
  <defs/>
  <defs>
    <linearGradient id="linear-gradient" x1="162.49" x2="180.18" y1="21.42" y2="21.42" gradientUnits="userSpaceOnUse">
      <stop offset="0" stop-color="#f9a44f"/>
      <stop offset=".52" stop-color="#eab443"/>
      <stop offset="1" stop-color="#d8c636"/>
    </linearGradient>
    <linearGradient id="linear-gradient-2" x1="136.84" x2="156.86" y1="21.42" y2="21.42" xlink:href="#linear-gradient"/>
    <linearGradient id="linear-gradient-3" x1="185.39" x2="207.67" y1="21.42" y2="21.42" xlink:href="#linear-gradient"/>
    <linearGradient id="linear-gradient-4" x1="24.55" x2="45.08" y1="21.42" y2="21.42" xlink:href="#linear-gradient"/>
    <linearGradient id="linear-gradient-5" x1="50.46" x2="57.75" y1="21.42" y2="21.42" xlink:href="#linear-gradient"/>
    <linearGradient id="linear-gradient-6" x1="111.08" x2="131.57" y1="21.67" y2="21.67" xlink:href="#linear-gradient"/>
    <linearGradient id="linear-gradient-7" x1="58.5" x2="65.71" y1="17.34" y2="17.34" xlink:href="#linear-gradient"/>
    <linearGradient id="linear-gradient-8" x1="66.46" x2="73.92" y1="21.42" y2="21.42" xlink:href="#linear-gradient"/>
    <linearGradient id="linear-gradient-9" x1="79.79" x2="97.48" y1="21.42" y2="21.42" xlink:href="#linear-gradient"/>
    <linearGradient id="linear-gradient-10" x1="0" x2="19.7" y1="21.42" y2="21.42" xlink:href="#linear-gradient"/>
  </defs>
  <g id="Layer_2">
    <g id="Game_Over">
      <path d="M20 .77a1.23 1.23 0 00-.9-.28h-8.25q-4.14 0-6.13 1.65a6.22 6.22 0 00-2 5.08V17a46.64 46.64 0 017.49-2.69v-5.8a1.53 1.53 0 01.49-1.24 2.38 2.38 0 011.52-.41h6.88a1.23 1.23 0 00.9-.28 1.24 1.24 0 00.28-.91v-4a1.24 1.24 0 00-.28-.9zM22.15 12a1.24 1.24 0 00-.91-.28h-5.12a1.21 1.21 0 00-.9.28 1.24 1.24 0 00-.28.91v.5a45.91 45.91 0 017.06-.58h.41a1.29 1.29 0 00-.26-.83zM47.49 12.07a26 26 0 00-1-3l-2.84-7.49A1.66 1.66 0 0043 .75a2 2 0 00-1-.26h-8.88a2 2 0 00-1.07.26 1.56 1.56 0 00-.61.83l-2.87 7.49a26.29 26.29 0 00-1 3c-.06.26-.12.52-.16.76h20.24c-.04-.24-.1-.5-.16-.76zm-12.65.37l1.55-5a1.14 1.14 0 01.28-.44.48.48 0 01.33-.14h.83a.47.47 0 01.34.13 1.28 1.28 0 01.29.43l1.55 5zM76.37.77a1.24 1.24 0 00-.91-.28h-5.35a1.56 1.56 0 00-.87.23 2.16 2.16 0 00-.64.76l-2.94 5.38a3.22 3.22 0 01-.28.43.39.39 0 01-.32.13h-.29a.39.39 0 01-.32-.13 3.22 3.22 0 01-.28-.43l-3-5.38a2.27 2.27 0 00-.64-.76 1.57 1.57 0 00-.88-.23h-5.28a1.24 1.24 0 00-.91.28 1.29 1.29 0 00-.28.91v11.15h7.3v-1.38l.75 1.38h7.21l.75-1.38v1.38h7.46V1.68a1.29 1.29 0 00-.28-.91zM99.93.77A1.24 1.24 0 0099 .49H83.71a1.24 1.24 0 00-.91.28 1.24 1.24 0 00-.28.91v11.15h15v-2.37a1.29 1.29 0 00-.28-.91 1.24 1.24 0 00-.91-.28h-6.42V6.73H99a1.29 1.29 0 00.91-.28 1.29 1.29 0 00.28-.91V1.68a1.29 1.29 0 00-.26-.91zM133.85 4a4.67 4.67 0 00-1.58-2.13 8.25 8.25 0 00-3.14-1.38 21.57 21.57 0 00-5.06-.49 21.9 21.9 0 00-5.07.49 8.23 8.23 0 00-3.15 1.39 4.67 4.67 0 00-1.6 2.12 8 8 0 00-.45 2.75v6.07h7.5V8a1.37 1.37 0 01.49-1.07 3.75 3.75 0 012.28-.45 3.72 3.72 0 012.27.45 1.38 1.38 0 01.5 1.07v4.88h7.46V6.76a8 8 0 00-.45-2.76zM147.3 12.14a4.06 4.06 0 01-.2-.69 3.7 3.7 0 01-.07-.66V1.68a1.14 1.14 0 00-.33-.91 1.4 1.4 0 00-.95-.28h-5.25a1.24 1.24 0 00-.91.28 1.29 1.29 0 00-.28.91v8.71c0 .53 0 1 .05 1.34a6.84 6.84 0 00.18 1v.06h8zM159.56.77a1.24 1.24 0 00-.91-.28h-5.18a1.24 1.24 0 00-.91.28 1.29 1.29 0 00-.28.91v9.07a3.68 3.68 0 01-.06.66c-.05.22-.12.46-.2.7l-.24.72h7.81v-.06a5.79 5.79 0 00.18-1c0-.37.05-.81.05-1.34V1.68a1.29 1.29 0 00-.26-.91zM182.63.77a1.24 1.24 0 00-.91-.28h-15.31a1.22 1.22 0 00-.91.28 1.24 1.24 0 00-.28.91v11.15h15v-2.37a1.24 1.24 0 00-.28-.91 1.22 1.22 0 00-.91-.28h-6.43V6.73h9.11a1.29 1.29 0 00.91-.28 1.29 1.29 0 00.28-.91V1.68a1.29 1.29 0 00-.27-.91zM207.84 12.73a4.36 4.36 0 00-2.84-1.45 2.57 2.57 0 001.44-1.4 6.16 6.16 0 00.41-2.36V6a5.62 5.62 0 00-1.41-4Q204 .49 200.3.49h-11a1.24 1.24 0 00-.91.28 1.24 1.24 0 00-.28.91v11.15h1.53a46 46 0 0119.3 4.17v-1a4.91 4.91 0 00-1.1-3.27zM199.5 9.1a2 2 0 01-.29 1.11 1.3 1.3 0 01-1.16.44h-2.47V6.43h2.47a1.3 1.3 0 011.16.45A1.9 1.9 0 01199.5 8z" style="fill:#fff"/>
      <path fill="url(#linear-gradient)" d="M162.77 26.85a1.24 1.24 0 00.91.28H179a1.24 1.24 0 00.91-.28 1.29 1.29 0 00.28-.91v-3.86a1 1 0 00-1.19-1.19h-9.11v-2.84h6.44a1.24 1.24 0 00.91-.28 1.26 1.26 0 00.28-.9v-1.16h-15v10.23a1.24 1.24 0 00.25.91z"/>
      <path fill="url(#linear-gradient-2)" d="M137.64 18l3.24 8a1.51 1.51 0 00.64.86 2.13 2.13 0 001 .23h8.58a2.16 2.16 0 001-.23 1.56 1.56 0 00.64-.86l3.32-8c.19-.48.36-.9.49-1.27s.23-.66.31-1h-7.81l-1.31 3.93a.93.93 0 01-.23.44.58.58 0 01-.4.12h-.36a.58.58 0 01-.4-.12 1 1 0 01-.23-.44l-1.32-3.93h-8a9 9 0 00.31 1c.17.32.33.74.53 1.27z"/>
      <path fill="url(#linear-gradient-3)" d="M185.67 26.85a1.24 1.24 0 00.91.28h5.08a1 1 0 001.19-1.19v-6.47h4.62a1.18 1.18 0 011 .35 1.67 1.67 0 01.28 1.07v5.05a1.29 1.29 0 00.28.91 1.24 1.24 0 00.91.28H205a1.2 1.2 0 00.9-.28 1.24 1.24 0 00.28-.91v-6c.5.22 1 .46 1.46.7a45.89 45.89 0 00-20.75-4.93h-1.53v10.23a1.29 1.29 0 00.31.91z"/>
      <path fill="url(#linear-gradient-4)" d="M24.55 25.94a1 1 0 001.19 1.19h4.85a1.24 1.24 0 00.91-.28 1.29 1.29 0 00.28-.91v-4.62h5.84v4.62a1.17 1.17 0 00.31.91 1.43 1.43 0 001 .28h5a1.24 1.24 0 00.91-.28 1.29 1.29 0 00.28-.91v-8.71a8.72 8.72 0 00-.17-1.52H24.72a8.72 8.72 0 00-.17 1.52z"/>
      <path fill="url(#linear-gradient-5)" d="M50.74 26.85a1.21 1.21 0 00.9.28h4.92a1 1 0 001.19-1.19V15.71h-7.29v10.23a1.24 1.24 0 00.28.91z"/>
      <path fill="url(#linear-gradient-6)" d="M111.52 23.65a4.64 4.64 0 001.59 2.11 8.55 8.55 0 003.15 1.37 21.75 21.75 0 005.08.49 21.66 21.66 0 005.07-.49 8.52 8.52 0 003.13-1.37 4.64 4.64 0 001.59-2.11 8.32 8.32 0 00.44-2.76v-5.18h-7.46v4a1.44 1.44 0 01-.49 1.11 6.13 6.13 0 01-4.56 0 1.44 1.44 0 01-.49-1.11v-4h-7.49v5.18a8.32 8.32 0 00.44 2.76z"/>
      <path fill="url(#linear-gradient-7)" d="M60.41 18.73a2 2 0 001 .25h1.32a2.08 2.08 0 001-.25 2 2 0 00.7-.81l1.2-2.21H58.5l1.2 2.21a1.91 1.91 0 00.71.81z"/>
      <path fill="url(#linear-gradient-8)" d="M66.74 26.85a1.24 1.24 0 00.91.28h5.08a1 1 0 001.19-1.19V15.71h-7.46v10.23a1.24 1.24 0 00.28.91z"/>
      <path fill="url(#linear-gradient-9)" d="M80.07 26.85a1.24 1.24 0 00.91.28h15.31a1 1 0 001.19-1.19v-3.86a1.24 1.24 0 00-.28-.91 1.29 1.29 0 00-.91-.28h-9.1v-2.84h6.43a1.24 1.24 0 00.91-.28 1.26 1.26 0 00.28-.9v-1.16h-15v10.23a1.29 1.29 0 00.26.91z"/>
      <path fill="url(#linear-gradient-10)" d="M12.21 20.89H9a1.51 1.51 0 01-1.14-.39 1.76 1.76 0 01-.38-1.23v-2A44.82 44.82 0 000 19.94v.46a6.23 6.23 0 002 5.08q2 1.65 6.12 1.65h10.39a1 1 0 001.19-1.19V15.71h-.41a47.19 47.19 0 00-7.08.54z"/>
    </g>
  </g>
</svg>
