<svg xmlns="http://www.w3.org/2000/svg" viewBox="0 0 189 203">
  <defs/>
  <defs>
    <linearGradient id="linear-gradient" x1="20.56" x2="160.73" y1="97.47" y2="97.47" gradientUnits="userSpaceOnUse">
      <stop offset="0" stop-color="#4f004f"/>
      <stop offset=".26" stop-color="#3f004a"/>
      <stop offset=".76" stop-color="#16003d"/>
      <stop offset="1" stop-color="#000036"/>
    </linearGradient>
    <linearGradient id="linear-gradient-2" x1="-901.94" x2="-958.56" y1="612.58" y2="612.58" gradientTransform="rotate(-104.25 -624.46737377 -45.40927634)" gradientUnits="userSpaceOnUse">
      <stop offset="0" stop-color="#fff"/>
      <stop offset="1" stop-color="#fff"/>
    </linearGradient>
    <clipPath id="clip-path">
      <path d="M80.61 110.62A30 30 0 00121 97.48a30 30 0 00-40.38 13.14z" style="fill:none"/>
    </clipPath>
    <clipPath id="clip-path-2">
      <path d="M167.16 77.93s-26.71-23-62.73 9c0 0-21.66 18.84-32.27 19.17 0 0 49.43 37.31 85.76-17.94z" style="fill:none"/>
    </clipPath>
  </defs>
  <g style="isolation:isolate">
    <g id="Layer_2">
      <g id="Splash_Screen">
        <g id="Logo">
          <path id="base" fill="url(#linear-gradient)" d="M160.73 122.93V72a26 26 0 00-13-22.52l-44.08-25.43a26 26 0 00-26 0L33.56 49.5a26 26 0 00-13 22.5v50.91a26 26 0 0013 22.51l44.09 25.48a26 26 0 0026 0l44.08-25.46a26 26 0 0013-22.51z"/>
          <g id="eye">
            <path id="Eye-2" fill="url(#linear-gradient-2)" d="M77.48 115.66A37.32 37.32 0 00126 101.22L140.41 77a3.1 3.1 0 00-1.09-4.21 61.91 61.91 0 00-84.78 21.54l-14.4 24.21c-.87 1.46 19.67-21.08 19.67-21.08a55.79 55.79 0 0173.73-20.87l-3.14 5.27a49.65 49.65 0 00-65.33 18.73L50.66 124.8c-.86 1.45 19.67-21.08 19.67-21.08a43.54 43.54 0 0156.93-16.58l-3.15 5.28a37.39 37.39 0 00-48.52 14.43l-14.4 24.21m40.4-18.67a31 31 0 01-21-2l.23-.4A31.28 31.28 0 01121 97.69l-.23.4a31 31 0 01-19.18 14.3z"/>
            <g id="color_point" clip-path="url(#clip-path)">
              <g clip-path="url(#clip-path-2)">
                <path fill="#eef23d" d="M157.38 71.57l2.81 15.51 9.62-5.97-6.12-7.77-6.31-1.77z"/>
                <path fill="#ef7043" d="M152.57 69.14l1.1 27.77 11.91-9.38-8.21-17.76-4.8-.63z"/>
                <path fill="#fd8a00" d="M153.59 68.04l2.16 29.47-3.54 2.2-5.86-32.68 7.24 1.01z"/>
                <path fill="#f73a00" d="M143.76 67.69c-.09.34 6.92 33.44 6.92 33.44l4.82-1.28-8.34-33.79z"/>
                <path fill="#bd178d" d="M135.77 69.33l11.71 32.93 4.59.38-8.32-36.27-7.98 2.96z"/>
                <path fill="#ff0046" d="M131.47 68.87s5.16 27 15.13 38.11 1.57-3.91 1.57-3.91l-12.4-35.83z"/>
                <path fill="#2626dd" d="M123.18 73.25l8.17-5.06 13.5 35.32-4.62 5.15S120 81.75 123.18 73.25z"/>
                <path fill="#0092e3" d="M120.8 74.26s5.64 35.56 12.29 40.15 7.5-6 7.5-6-19.41-31.94-17-36.35-2.79 2.2-2.79 2.2z"/>
                <path d="M114.97 76.64l7.52 41.51 10.19-3.48-11.76-42.15-5.95 4.12z" style="fill:#4cc064"/>
                <path fill="#c1cd00" d="M112.1 78.8s-2.18 32.64 7.91 39.55 3.07-2.47 3.07-2.47-8.67-40.13-6.55-41.72-4.43 4.64-4.43 4.64z"/>
                <path fill="#f9f910" d="M107.3 81.87s2.53 34.27 7.44 37.67 4.2-3.56 4.2-3.56-10.49-31.62-5.45-36.71-6.19 2.6-6.19 2.6z"/>
                <path fill="#c6ff00" d="M105.05 83.14s-1.32 24.14-10.11 35.63 9.78.44 9.78.44 3.53-35.6 2.92-37.57-2.59 1.5-2.59 1.5z"/>
                <path fill="#ee0075" d="M106.47 83.62l-2.81 35 10.34.14s-5.84-35.36-5.41-35.72-2.12.58-2.12.58z"/>
                <path fill="#ff1744" d="M100 87.64S93.49 112.57 88.4 116s6.54 2.78 6.54 2.78a58.15 58.15 0 0010-34.2z"/>
                <path fill="#1de9b6" d="M93.22 92.6s-9.52 22.1-8.39 23.92 5.08 0 5.08 0S101.36 89 100 87.64s-6.78 4.96-6.78 4.96z"/>
                <path fill="#ff3d00" d="M85.12 97.62s-7.35 14.14-3 17.69 3.19.39 3.19.39l7.9-23.1z"/>
                <path d="M70.22 106.86s9.64 7.61 10.6 6.67 3-11.4 2.2-12.52-12.8 5.85-12.8 5.85z" style="fill:#4cc064"/>
              </g>
            </g>
          </g>
        </g>
      </g>
    </g>
  </g>
</svg>
