<svg xmlns="http://www.w3.org/2000/svg" viewBox="0 0 100.71 66.96">
  <defs/>
  <defs>
    <clipPath id="clip-path">
      <path d="M40.49 46.51A30.14 30.14 0 0054 49.79a30.37 30.37 0 0026.9-16.41 30 30 0 00-40.41 13.13z" style="fill:none"/>
    </clipPath>
    <clipPath id="clip-path-2">
      <path d="M127.05 13.83s-26.72-23-62.73 9c0 0-21.66 18.84-32.28 19.16 0 0 49.44 37.31 85.76-17.93z" style="fill:none"/>
    </clipPath>
    <linearGradient id="linear-gradient" x1="-1460.65" x2="-1517.27" y1="670.01" y2="670.01" gradientTransform="rotate(-104.25 -971.1213981 -250.4420007)" gradientUnits="userSpaceOnUse">
      <stop offset="0" stop-color="#fff"/>
      <stop offset="1" stop-color="#fff"/>
    </linearGradient>
  </defs>
  <g id="Splash_Screen">
    <g id="eye">
      <path id="Eye-2" fill="url(#linear-gradient)" d="M37.36 51.56a37.36 37.36 0 0048.53-14.44l14.4-24.21a3 3 0 00.33-2.32 3.13 3.13 0 00-1.41-1.89 61.91 61.91 0 00-84.78 21.53L0 54.43c-.87 1.46 19.66-21.07 19.66-21.07a55.8 55.8 0 0173.76-20.88l-3.14 5.28A49.66 49.66 0 0025 36.49L10.55 60.7c-.87 1.45 19.67-21.08 19.67-21.08A43.52 43.52 0 0187.14 23L84 28.31a37.4 37.4 0 00-48.52 14.44L21.07 67m40.4-18.67a31 31 0 01-21-2l.24-.39a31.27 31.27 0 0140.12-12.3l-.24.4a31 31 0 01-19.12 14.25z"/>
      <g id="color_point" clip-path="url(#clip-path)">
        <g clip-path="url(#clip-path-2)">
          <path fill="#bd178d" d="M95.65 5.23l11.72 32.93 4.59.38-8.33-36.27-7.98 2.96z"/>
          <path fill="#ff0046" d="M91.36 4.77s5.16 27 15.13 38.11 1.56-3.88 1.56-3.88L95.66 3.14z"/>
          <path fill="#2626dd" d="M83.06 9.15l8.18-5.07 13.5 35.33-4.62 5.14s-20.2-26.91-17.06-35.4z"/>
          <path fill="#0092e3" d="M80.68 10.16S86.32 45.72 93 50.31s7.5-6 7.5-6S81.06 12.39 83.44 8s-2.76 2.16-2.76 2.16z"/>
          <path d="M74.85 12.54l7.52 41.51 10.19-3.48L80.8 8.41l-5.95 4.13z" style="fill:#4cc064"/>
          <path fill="#c1cd00" d="M72 14.7s-2.2 32.64 7.9 39.55 3.1-2.47 3.1-2.47-8.7-40.13-6.59-41.72S72 14.7 72 14.7z"/>
          <path fill="#f9f910" d="M67.18 17.77S69.71 52 74.63 55.44s4.2-3.56 4.2-3.56-10.49-31.62-5.46-36.72-6.19 2.61-6.19 2.61z"/>
          <path fill="#c6ff00" d="M64.93 19s-1.32 24.17-10.11 35.67 9.79.44 9.79.44 3.53-35.6 2.92-37.57-2.6 1.46-2.6 1.46z"/>
          <path fill="#ee0075" d="M66.36 19.52l-2.81 35 10.34.15S68.05 19.32 68.47 19s-2.11.52-2.11.52z"/>
          <path fill="#ff1744" d="M59.88 23.53s-6.5 24.94-11.59 28.36 6.53 2.78 6.53 2.78a58.13 58.13 0 0010-34.21z"/>
          <path fill="#1de9b6" d="M53.11 28.5s-9.53 22.1-8.4 23.92 5.08 0 5.08 0 11.46-27.55 10.09-28.89-6.77 4.97-6.77 4.97z"/>
          <path fill="#ff3d00" d="M45 33.52s-7.36 14.14-3 17.69 3.2.39 3.2.39l7.9-23.1z"/>
          <path d="M30.11 42.76s9.63 7.61 10.6 6.67 3-11.4 2.19-12.52-12.79 5.85-12.79 5.85z" style="fill:#4cc064"/>
        </g>
      </g>
    </g>
  </g>
</svg>
