<svg xmlns="http://www.w3.org/2000/svg" xmlns:xlink="http://www.w3.org/1999/xlink" viewBox="0 0 70.4 60.35">
  <defs/>
  <defs>
    <radialGradient id="futuregrit_163" cx="345.37" cy="9.42" r="50.88" gradientTransform="matrix(.53 0 0 1.07 -148.3 46.02)" gradientUnits="userSpaceOnUse">
      <stop offset="0" stop-color="#ffbd00"/>
      <stop offset="1" stop-color="#ff772c"/>
    </radialGradient>
    <linearGradient id="futuregrit_160" x1="35.21" x2="35.21" y1="57.08" y2=".57" gradientUnits="userSpaceOnUse">
      <stop offset="0" stop-color="#fff300"/>
      <stop offset="1" stop-color="#ff9700"/>
    </linearGradient>
    <linearGradient id="futuregrit_169" x1="35.21" x2="35.21" y1="55.98" y2="1.2" gradientUnits="userSpaceOnUse">
      <stop offset="0" stop-color="#fc0"/>
      <stop offset="1" stop-color="#ff9700"/>
    </linearGradient>
    <linearGradient id="futuregrit_155" x1="-984.62" x2="-923.97" y1="48.98" y2="48.98" gradientTransform="matrix(-1 0 0 1 -918.83 0)" gradientUnits="userSpaceOnUse">
      <stop offset="0" stop-color="#ff6140"/>
      <stop offset=".1" stop-color="#ef5b3c"/>
      <stop offset=".29" stop-color="#c54b31"/>
      <stop offset=".55" stop-color="#813120"/>
      <stop offset=".88" stop-color="#240e09"/>
      <stop offset="1"/>
    </linearGradient>
    <linearGradient id="futuregrit_172" x1="4.15" x2="68.66" y1="13.39" y2="13.39" gradientUnits="userSpaceOnUse">
      <stop offset="0" stop-color="#ff9840"/>
      <stop offset=".1" stop-color="#ef8e3c"/>
      <stop offset=".29" stop-color="#c57531"/>
      <stop offset=".55" stop-color="#814d20"/>
      <stop offset=".88" stop-color="#241609"/>
      <stop offset="1"/>
    </linearGradient>
  </defs>
  <g style="isolation:isolate">
    <g id="Layer_2">
      <g id="Game_Over">
        <g id="Info">
          <path fill="url(#futuregrit_163)" d="M1.19 51.21c2.44 10.17 61.62 13 66.65 2.46 4.58-9.61 2.37-41.29-1.54-48.15C61-3.83 8.73 0 4.41 7.36.38 14.22-1.35 40.67 1.19 51.21z"/>
          <path fill="url(#futuregrit_160)" d="M1.38 49.41c2.44 9.81 61.26 10.51 66.28.32 4.56-9.27 2.42-37.19-1.48-43.8C60.86-3.09 8.83.52 4.52 7.61c-4.01 6.61-5.66 31.64-3.14 41.8z"/>
          <path fill="url(#futuregrit_169)" d="M2.12 48.55c2.38 9.52 59.93 10.2 64.84.3 4.46-9 2.36-36-1.46-42.42C60.3-2.32 9.4 1.09 5.19 8 1.26 14.4-.35 38.68 2.12 48.55z"/>
          <path fill="#ff5200" d="M35.4 47.39A16.23 16.23 0 0047.13 20l.94-2.1c.52-1.16-.23-2-1.66-1.82l-8.4.88c-1.43.15-1.91 1.21-1.06 2.38l5 6.83c.85 1.17 1.89 1.31 2.33.32l.81-1.81a11.65 11.65 0 11-19.79.76 2.28 2.28 0 10-4-2.26 16.24 16.24 0 0014.1 24.21z"/>
          <path d="M65.79 49s-26.85 9.49-60.65 1.14c0 0 22 3.81 31.73 0 16.59-6.46 24.56-8.37 28.92-1.14z" style="mix-blend-mode:screen" fill="url(#futuregrit_155)"/>
          <path d="M64.21 50.86c-.3-1.09 2.4-6 3.09-6s.07 3.27-.34 4-2.59 2.54-2.75 2z" style="fill:#fff"/>
          <path d="M5 8S44.82-5.51 65.64 6.58c0 0 2.18 1.86 3 9.09 0 0-1.67-6.36-14.12-5.45C43.81 11 27.19 30.17 9.82 24 1.09 20.89 5 8 5 8z" style="mix-blend-mode:screen" fill="url(#futuregrit_172)"/>
          <path d="M5 13.6S3.14 8.39 6.8 6.54 22.49 2.93 23.09 3.4s-5.08 2.65-8 3.8S6.53 14.48 5 13.6z" style="fill:#fff"/>
        </g>
      </g>
    </g>
  </g>
</svg>
