<svg xmlns="http://www.w3.org/2000/svg" xmlns:xlink="http://www.w3.org/1999/xlink" viewBox="0 0 56 48">
  <defs/>
  <defs>
    <radialGradient id="futuregrit_144" cx="-447.93" cy="44.61" r="39.86" gradientTransform="matrix(.54 0 0 1 272.16 0)" gradientUnits="userSpaceOnUse">
      <stop offset="0" stop-color="#d0cdea"/>
      <stop offset="1" stop-color="#7d75da"/>
    </radialGradient>
    <linearGradient id="futuregrit_129" x1="28" y1="45.58" x2="28" y2=".42" gradientUnits="userSpaceOnUse">
      <stop offset="0" stop-color="#cadcff"/>
      <stop offset="1" stop-color="#fff"/>
    </linearGradient>
    <linearGradient id="futuregrit_396" x1="28" y1="44.78" x2="28" y2=".87" gradientUnits="userSpaceOnUse">
      <stop offset="0" stop-color="#fafafd"/>
      <stop offset="1" stop-color="#c3bfee"/>
    </linearGradient>
    <linearGradient id="futuregrit_155" x1="830.52" y1="38.53" x2="878.93" y2="38.53" gradientTransform="matrix(-1 0 0 1 883.07 0)" gradientUnits="userSpaceOnUse">
      <stop offset="0" stop-color="#ff6140"/>
      <stop offset=".1" stop-color="#ef5b3c"/>
      <stop offset=".29" stop-color="#c54b31"/>
      <stop offset=".55" stop-color="#813120"/>
      <stop offset=".88" stop-color="#240e09"/>
      <stop offset="1"/>
    </linearGradient>
    <linearGradient id="futuregrit_172" x1="3.07" y1="9.77" x2="54.18" y2="9.77" gradientUnits="userSpaceOnUse">
      <stop offset="0" stop-color="#ff9840"/>
      <stop offset=".1" stop-color="#ef8e3c"/>
      <stop offset=".29" stop-color="#c57531"/>
      <stop offset=".55" stop-color="#814d20"/>
      <stop offset=".88" stop-color="#241609"/>
      <stop offset="1"/>
    </linearGradient>
  </defs>
  <g style="isolation:isolate">
    <g id="Layer_2">
      <g id="Home">
        <g id="App_Bar">
          <g id="Sound_Off">
            <path d="M1 41.05c2 7.42 49.19 9.95 53.18 2.26C57.8 36.3 55.41 9 52.31 4 48.08-2.8 6.7 0 3.28 5.37.09 10.38-1 33.35 1 41.05z" fill="url(#futuregrit_144)"/>
            <path d="M1.17 39.74c1.93 7.16 48.89 8.14 52.86.7 3.61-6.77 1.27-31.29-1.82-36.11C48-2.25 6.78.38 3.37 5.55c-3.18 4.83-4.2 26.77-2.2 34.19z" fill="url(#futuregrit_129)"/>
            <path d="M1.75 39.1c1.89 6.95 47.84 7.92 51.73.7C57 33.23 54.7 9.37 51.68 4.69 47.56-1.69 7.23.8 3.9 5.82.79 10.51-.21 31.9 1.75 39.1z" fill="url(#futuregrit_396)"/>
            <path d="M52.55 39.93s-21.63 6.43-48.4.34c0 0 17.11-.9 24.85-3.68 13.14-4.71 20.1-1.96 23.55 3.34z" style="mix-blend-mode:screen" fill="url(#futuregrit_155)"/>
            <path style="fill:#fff;" d="M51.3 41.26c-.24-.79 1.9-4.42 2.45-4.4s.06 2.38-.27 2.94-2.06 1.86-2.18 1.46zM3.78 9.92s-1.51-3.79 1.4-5.14 12.43-2.64 12.9-2.3-4 1.94-6.35 2.77S5 10.57 3.78 9.92z"/>
            <path style="fill:#ab9ff2;" d="M28 25.57c-2.66-2.46-9.17 1.4-9.64 5.51s8.23 4.34 10.16 2a5.86 5.86 0 00-.52-7.51z"/>
            <path style="fill:#ab9ff2;" d="M28.83 30.34s.91-13.74 1.67-17.85a2.36 2.36 0 012.79 1s-1.95 14.73-4.61 18.89z"/>
            <path style="fill:#ab9ff2;" d="M30.5 12.49a11 11 0 019.35 3.2l.07 1s-5.81-1.08-9.93-.37z"/>
            <ellipse style="fill:none;stroke:#ab9ff2;stroke-linecap:round;stroke-miterlimit:10;" cx="29.13" cy="23.47" rx="15.04" ry="14.77"/>
            <path style="fill:none;stroke:#ab9ff2;stroke-linecap:round;stroke-miterlimit:10;" d="M20.09 11.67l17.52 24z"/>
            <path d="M3.78 5.85s31.52-9.87 48-1c0 0 1.73 1.36 2.39 6.63 0 0-1.32-4.64-11.19-4C34.49 8 21.33 22 7.57 17.51.65 15.25 3.78 5.85 3.78 5.85z" style="mix-blend-mode:screen" fill="url(#futuregrit_172)"/>
          </g>
        </g>
      </g>
    </g>
  </g>
</svg>
