<svg xmlns="http://www.w3.org/2000/svg" viewBox="0 0 56 48">
  <defs/>
  <defs>
    <radialGradient id="futuregrit_163" cx="-453.93" cy="22.78" r="40.57" gradientTransform="matrix(.53 0 0 1.07 270.99 20.32)" gradientUnits="userSpaceOnUse">
      <stop offset="0" stop-color="#ffbd00"/>
      <stop offset="1" stop-color="#ff772c"/>
    </radialGradient>
    <linearGradient id="futuregrit_160" x1="28" y1="45.4" x2="28" y2=".45" gradientUnits="userSpaceOnUse">
      <stop offset="0" stop-color="#fff300"/>
      <stop offset="1" stop-color="#ff9700"/>
    </linearGradient>
    <linearGradient id="futuregrit_169" x1="28" y1="44.53" x2="28" y2=".95" gradientUnits="userSpaceOnUse">
      <stop offset="0" stop-color="#fc0"/>
      <stop offset="1" stop-color="#ff9700"/>
    </linearGradient>
    <linearGradient id="futuregrit_155" x1="830.74" y1="38.96" x2="878.98" y2="38.96" gradientTransform="matrix(-1 0 0 1 883.07 0)" gradientUnits="userSpaceOnUse">
      <stop offset="0" stop-color="#ff6140"/>
      <stop offset=".1" stop-color="#ef5b3c"/>
      <stop offset=".29" stop-color="#c54b31"/>
      <stop offset=".55" stop-color="#813120"/>
      <stop offset=".88" stop-color="#240e09"/>
      <stop offset="1"/>
    </linearGradient>
    <linearGradient id="futuregrit_172" x1="3.3" y1="10.65" x2="54.61" y2="10.65" gradientUnits="userSpaceOnUse">
      <stop offset="0" stop-color="#ff9840"/>
      <stop offset=".1" stop-color="#ef8e3c"/>
      <stop offset=".29" stop-color="#c57531"/>
      <stop offset=".55" stop-color="#814d20"/>
      <stop offset=".88" stop-color="#241609"/>
      <stop offset="1"/>
    </linearGradient>
  </defs>
  <g style="isolation:isolate">
    <g id="Layer_2">
      <g id="Home">
        <g id="App_Bar">
          <g id="Sound_On">
            <path d="M.94 40.73c2 8.1 49 10.37 53 2C57.6 35 55.85 9.85 52.73 4.39 48.49-3 6.94 0 3.51 5.86.3 11.31-1.07 32.35.94 40.73z" fill="url(#futuregrit_163)"/>
            <path d="M1.1 39.31c1.94 7.8 48.72 8.35 52.72.24 3.63-7.37 1.92-29.55-1.18-34.83C48.41-2.45 7 .41 3.6 6.05.41 11.31-.91 31.22 1.1 39.31z" fill="url(#futuregrit_160)"/>
            <path d="M1.68 38.61c1.9 7.58 47.67 8.12 51.58.25 3.55-7.16 1.88-28.64-1.16-33.75C48-1.84 7.48.87 4.13 6.35 1 11.45-.28 30.77 1.68 38.61z" fill="url(#futuregrit_169)"/>
            <path style="fill:#ff5200;" d="M26.86 26.38c-2.66-2.45-9.16 1.39-9.63 5.48s8.22 4.32 10.15 2a5.81 5.81 0 00-.52-7.48z"/>
            <path style="fill:#ff5200;" d="M27.69 31.13s.91-13.68 1.67-17.76a2.37 2.37 0 012.79 1S30.2 29 27.54 33.11z"/>
            <path style="fill:#ff5200;" d="M29.36 13.37a11.07 11.07 0 019.35 3.18l.07 1s-5.81-1.08-9.93-.37z"/>
            <path d="M52.33 39S31 46.52 4.09 39.89c0 0 17.47 3 25.24 0 13.19-5.14 19.53-6.66 23-.89z" style="mix-blend-mode:screen" fill="url(#futuregrit_155)"/>
            <path style="fill:#fff;" d="M51.08 40.45c-.25-.86 1.91-4.81 2.45-4.8s.06 2.6-.27 3.21-2.06 2.03-2.18 1.59z"/>
            <path d="M4 6.38S35.65-4.39 52.21 5.23c0 0 1.74 1.48 2.4 7.23 0 0-1.32-5.06-11.23-4.33-8.53.62-21.75 15.87-35.57 11C.87 16.62 4 6.38 4 6.38z" style="mix-blend-mode:screen" fill="url(#futuregrit_172)"/>
            <path style="fill:#fff;" d="M4 10.82S2.5 6.68 5.41 5.2s12.48-2.87 13-2.5-4 2.11-6.37 3S5.2 11.52 4 10.82z"/>
          </g>
        </g>
      </g>
    </g>
  </g>
</svg>
