<svg xmlns="http://www.w3.org/2000/svg" xmlns:xlink="http://www.w3.org/1999/xlink" viewBox="0 0 167.86 80.31">
  <defs/>
  <defs>
    <radialGradient id="futuregrit_163" cx="84.96" cy="67.72" r="59.95">
      <stop offset="0" stop-color="#ffbd00"/>
      <stop offset="1" stop-color="#ff772c"/>
    </radialGradient>
    <linearGradient id="futuregrit_139" x1="83.93" x2="83.93" y1="80.31" y2="2.53" gradientUnits="userSpaceOnUse">
      <stop offset="0" stop-color="#8b9ad1"/>
      <stop offset="1" stop-color="#cee0ff"/>
    </linearGradient>
    <linearGradient id="futuregrit_129" x1="83.93" x2="83.93" y1="77.79" gradientUnits="userSpaceOnUse">
      <stop offset="0" stop-color="#cadcff"/>
      <stop offset="1" stop-color="#fff"/>
    </linearGradient>
    <linearGradient id="futuregrit_160" x1="82.45" x2="82.45" y1="68.96" y2="4.77" gradientUnits="userSpaceOnUse">
      <stop offset="0" stop-color="#fff300"/>
      <stop offset="1" stop-color="#ff9700"/>
    </linearGradient>
    <linearGradient id="futuregrit_169" x1="82.45" x2="82.45" y1="67.76" y2="5.46" gradientUnits="userSpaceOnUse">
      <stop offset="0" stop-color="#fc0"/>
      <stop offset="1" stop-color="#ff9700"/>
    </linearGradient>
    <linearGradient id="futuregrit_172" x1="15.95" x2="155.89" y1="17.97" y2="17.97" gradientUnits="userSpaceOnUse">
      <stop offset="0" stop-color="#ff9840"/>
      <stop offset=".1" stop-color="#ef8e3c"/>
      <stop offset=".29" stop-color="#c57531"/>
      <stop offset=".55" stop-color="#814d20"/>
      <stop offset=".88" stop-color="#241609"/>
      <stop offset="1"/>
    </linearGradient>
    <linearGradient id="futuregrit_155" x1="966.08" x2="1099.49" y1="60.05" y2="60.05" gradientTransform="matrix(-1 0 0 1 1115.66 0)" gradientUnits="userSpaceOnUse">
      <stop offset="0" stop-color="#ff6140"/>
      <stop offset=".1" stop-color="#ef5b3c"/>
      <stop offset=".29" stop-color="#c54b31"/>
      <stop offset=".55" stop-color="#813120"/>
      <stop offset=".88" stop-color="#240e09"/>
      <stop offset="1"/>
    </linearGradient>
  </defs>
  <g style="isolation:isolate">
    <g id="Layer_2">
      <g id="Home">
        <g id="Start_Button">
          <path fill="url(#futuregrit_139)" d="M161.36 71.12a3.78 3.78 0 01-.51.46c-14.34 11.71-138.64 11.3-155.95.78a4.55 4.55 0 01-1.8-1.73C-3 57.85.29 19.39 10 11.07 20.5 2.16 145.53-1.88 158.45 9.46c9.48 8.31 14 50.01 2.91 61.66z"/>
          <path fill="url(#futuregrit_129)" d="M3.1 68.1c5.9 12.33 146.05 13.31 158.26.5 11.09-11.65 6.58-53.36-2.91-61.67C145.53-4.4 20.5-.37 10 8.55.29 16.86-3 55.32 3.1 68.1z"/>
          <path d="M8.83 63.9S27.76 74 86.05 74s67.64-10.1 67.64-10.1z" style="fill:#fff;"/>
          <path d="M160.85 63.89v7.69c-14.34 11.71-138.64 11.3-155.95.78L5.27 70l3.56-6.15L158.28 57z" style="mix-blend-mode:multiply" fill="#ced6ff"/>
          <path fill="url(#futuregrit_163)" d="M7.47 62.51C12.85 73.7 143 76.85 154.1 65.21c10.07-10.58 6-48.45-2.64-56-11.74-10.28-127.4-3.06-136.9 5C5.71 21.8 1.9 50.9 7.47 62.51z"/>
          <path fill="url(#futuregrit_160)" d="M7.9 60.53c5.36 10.79 134.75 11.56 145.79.34 10-10.2 6.09-43.93-2.49-51.2-11.69-9.92-126.92-3-136.39 4.85C6 21.8 2.36 49.34 7.9 60.53z"/>
          <path fill="url(#futuregrit_169)" d="M9.52 59.57c5.23 10.48 131.83 11.23 142.63.34 9.82-9.9 6-42.63-2.44-49.7C138.28.59 25.54 7.35 16.28 14.92 7.64 22 4.09 48.72 9.52 59.57z"/>
          <path d="M16 15s88.23-17.93 134-4.62a35.42 35.42 0 015.87 13s-16.68 6-40.24 7S67.46 18.19 47.57 16.2 16 15 16 15z" style="mix-blend-mode:screen" fill="url(#futuregrit_172)"/>
          <path d="M149.58 60.11s-59.05 10.4-133.41 1.22c0 0 48.31 4.19 69.8 0 36.49-7.11 54.03-9.21 63.61-1.22z" style="mix-blend-mode:screen" fill="url(#futuregrit_155)"/>
          <path d="M12.64 19.5a14 14 0 016.15-5.84c4.29-2 16.52-4.08 17.22-3.56s-6 2.92-9.4 4.18-12.22 6.19-13.97 5.22zM12.26 20.52c-.89.13-3.09 7-3 8.12s2.79-2.44 3.2-4.33a7.83 7.83 0 00-.2-3.79z" style="fill:#fff;"/>
          <path d="M148 63.05c-.62-1.1 4.84-6.12 6.23-6.1s.15 3.3-.69 4.07-5.25 2.58-5.54 2.03z" style="fill:#fff;"/>
          <path d="M36.19 46.69a2.94 2.94 0 01-.8-1.77c0-.52.44-1.21 1.33-2.08a2.35 2.35 0 011.63-.74c.58 0 1.38.52 2.4 1.54a4.71 4.71 0 001.24 1 2.86 2.86 0 001.47.47c1.91 0 2.87-.78 2.87-2.34a1.36 1.36 0 00-.79-1.18 5.79 5.79 0 00-1.95-.7 16.42 16.42 0 01-2.53-.69 16.6 16.6 0 01-2.53-1.13 5.07 5.07 0 01-2-2 6.76 6.76 0 01-.79-3.38 6.5 6.5 0 012-4.73 7.46 7.46 0 015.5-2 11.15 11.15 0 013.37.48 6.44 6.44 0 012.11 1l.78.59a2.41 2.41 0 011 1.51 3.43 3.43 0 01-.74 1.69c-.7 1-1.42 1.54-2.16 1.54a3.16 3.16 0 01-1.6-.61 4 4 0 01-.35-.31 4.59 4.59 0 00-.48-.4 3.06 3.06 0 00-1.65-.4 2.74 2.74 0 00-1.66.48 1.53 1.53 0 00-.66 1.32 1.58 1.58 0 00.8 1.29 4.85 4.85 0 002 .71 21.42 21.42 0 012.55.57 16 16 0 012.56.94 4.54 4.54 0 012 1.93 6.69 6.69 0 01.78 3.37 7.44 7.44 0 01-.8 3.53A6.07 6.07 0 0149 48.54a9.57 9.57 0 01-5.33 1.64 10.13 10.13 0 01-2.74-.36 7.13 7.13 0 01-2.1-.88A7.31 7.31 0 0136.47 47zM53.76 27.25h17.13a3.43 3.43 0 011.44.23 1.18 1.18 0 01.62.73 4.56 4.56 0 01.15 1.29 4.39 4.39 0 01-.1 1.28 1 1 0 01-.52.66 3.55 3.55 0 01-1.58.28H65v15.5a8.65 8.65 0 010 1.05 2.59 2.59 0 01-.27.78 1.31 1.31 0 01-.82.63 5 5 0 01-1.54.19 4.88 4.88 0 01-1.53-.19 1.3 1.3 0 01-.8-.63 2.51 2.51 0 01-.27-.8 9 9 0 010-1.06V31.72h-6.05a3.43 3.43 0 01-1.44-.23 1.16 1.16 0 01-.62-.72 4.59 4.59 0 01-.15-1.3 4.44 4.44 0 01.15-1.28 1.07 1.07 0 01.52-.66 3.69 3.69 0 011.58-.28zM83.21 28.89l8.32 17.19a4 4 0 01.52 1.57c0 .74-.59 1.41-1.79 2a4 4 0 01-1.64.53 1.7 1.7 0 01-1-.28 1.77 1.77 0 01-.55-.59c-.12-.2-.28-.51-.48-.92L85 45.06h-8.54l-1.6 3.33c-.21.41-.36.71-.48.89a2.08 2.08 0 01-.55.57 1.57 1.57 0 01-1 .29 4 4 0 01-1.65-.52c-1.19-.57-1.78-1.23-1.78-2a4 4 0 01.52-1.57l8.32-17.22a2.58 2.58 0 011-1.14 2.71 2.71 0 011.46-.44 2.61 2.61 0 012.51 1.64zm-2.5 7.39l-2 4.22h4.1zM111 46.05a4.81 4.81 0 01.46 1.6c0 .78-.63 1.44-1.91 2a4.13 4.13 0 01-1.58.43 1.57 1.57 0 01-1-.29 2.11 2.11 0 01-.57-.6q-.31-.58-2.4-5.58l-1 .06h-3.8v3.49a9 9 0 010 1.06 2.54 2.54 0 01-.29.82c-.29.55-1.09.83-2.4.83s-2.28-.38-2.53-1.14a5.31 5.31 0 01-.18-1.6V30a9.55 9.55 0 010-1.07 2.32 2.32 0 01.3-.81q.42-.84 2.4-.84h6.65a8.51 8.51 0 015.27 2 7.31 7.31 0 012 2.58 8.21 8.21 0 01.8 3.64 7.66 7.66 0 01-2.31 5.73q.71 1.62 2.09 4.82zm-11.8-7.86h3.94a2.91 2.91 0 001.79-.68 2.37 2.37 0 00.89-2 2.42 2.42 0 00-.89-2 3 3 0 00-1.85-.69H99.2zM113.43 27.25h17.13a3.48 3.48 0 011.45.23 1.18 1.18 0 01.62.73 4.56 4.56 0 01.15 1.29 4.39 4.39 0 01-.15 1.28 1 1 0 01-.53.66 3.5 3.5 0 01-1.57.28h-5.88v15.5a8.65 8.65 0 01-.05 1.05 2.39 2.39 0 01-.28.78 1.26 1.26 0 01-.81.63 5 5 0 01-1.54.19 4.88 4.88 0 01-1.53-.19 1.3 1.3 0 01-.8-.63 2.85 2.85 0 01-.28-.8 9.46 9.46 0 010-1.06V31.72h-5.96a3.52 3.52 0 01-1.45-.23 1.18 1.18 0 01-.61-.72 4.54 4.54 0 01-.16-1.3 4.39 4.39 0 01.16-1.28 1.07 1.07 0 01.52-.66 3.68 3.68 0 011.57-.28z" style="fill:#ff5200;"/>
        </g>
      </g>
    </g>
  </g>
</svg>
